<svg xmlns="http://www.w3.org/2000/svg" xmlns:xlink="http://www.w3.org/1999/xlink" width="512" height="512" viewBox="0 0 512 512" id="call-center"><defs><linearGradient id="a" x1="-19.937" x2="466.521" y1="451.937" y2="-34.521" data-name="New Gradient Swatch 1" gradientUnits="userSpaceOnUse"><stop offset="0" stop-color="#003f8a"></stop><stop offset=".518" stop-color="#00d7df"></stop><stop offset="1" stop-color="#006df0"></stop></linearGradient><linearGradient id="b" x1="28.063" x2="514.521" y1="499.937" y2="13.479" xlink:href="#a"></linearGradient><linearGradient id="c" x1="55.178" x2="541.636" y1="527.051" y2="40.593" xlink:href="#a"></linearGradient><linearGradient id="d" x1="44.063" x2="530.521" y1="515.937" y2="29.479" xlink:href="#a"></linearGradient></defs><circle cx="208" cy="224" r="16" fill="url(#a)"></circle><circle cx="304" cy="224" r="16" fill="url(#b)"></circle><path fill="url(#c)" d="M446,436.36c-12.26-18.23-29.17-30.94-47.6-35.79L312,377.83V348.11c21.38-14.33,40.57-35.44,49.95-60.11H384a8,8,0,0,0,8-8v64h-8a8,8,0,0,0-8-8H344a8,8,0,0,0-8,8v23a8,8,0,0,0,8,8h32a8,8,0,0,0,8-8v-7h16a8,8,0,0,0,8-8V279.6A20.035,20.035,0,0,0,424,260V204a20.035,20.035,0,0,0-16-19.6V160C408,76.19,339.81,8,256,8S104,76.19,104,160v24.4A20.035,20.035,0,0,0,88,204v56a20.02,20.02,0,0,0,20,20h12a8,8,0,0,0,8,8h22.05c9.38,24.67,28.57,45.78,49.95,60.11v29.72l-86.39,22.74C95.17,405.42,78.26,418.13,66,436.36c-11.61,17.27-18,37.62-18,57.31V496a8,8,0,0,0,8,8H456a8,8,0,0,0,8-8v-2.33C464,473.98,457.61,453.63,446,436.36ZM368,359H352v-7h16ZM352,187.31a79.215,79.215,0,0,1-41.3-31.53,8.009,8.009,0,0,0-10.77-2.37c-.6.37-59.24,35.26-139.93,37.48V160a96,96,0,0,1,192,0ZM376,272h-8V192h8Zm32-68v56a4,4,0,0,1-4,4H392V200h12A4,4,0,0,1,408,204ZM120,264H108a4,4,0,0,1-4-4V204a4,4,0,0,1,4-4h12Zm24,8h-8V192h8Zm0-112v16H128a8,8,0,0,0-8,8V160c0-74.99,61.01-136,136-136S392,85.01,392,160v24a8,8,0,0,0-8-8H368V160a112,112,0,0,0-224,0Zm50.34,163.58C164.46,296.8,160,269.75,160,256V206.89c70.26-1.8,123.83-26.71,141.78-36.2A93.971,93.971,0,0,0,352,203.94V256c0,13.75-4.46,40.8-34.34,67.58C298.4,340.84,274.19,352,256,352S213.6,340.84,194.34,323.58ZM296,357.38v22.87l-40,33.34-40-33.34V357.38c13.85,6.81,27.82,10.62,40,10.62S282.15,364.19,296,357.38ZM384,488V472a8,8,0,0,0-16,0v16H144V472a8,8,0,0,0-16,0v16H64.21c2.41-33.03,25.47-64.59,53.47-71.95l88.37-23.26,44.83,37.36a8,8,0,0,0,10.24,0l44.83-37.36,88.38,23.26c27.99,7.36,51.05,38.92,53.46,71.95Z"></path><path fill="url(#d)" d="M280,304a8,8,0,0,0-8-8H240a8,8,0,0,0,0,16h32A8,8,0,0,0,280,304Z"></path></svg>