<svg xmlns="http://www.w3.org/2000/svg" width="24" height="24" fill="none" viewBox="0 0 24 24" id="dental-health"><path fill="#C4E6FF" fill-rule="evenodd" d="M4 16V19.802C4 21.5682 5.43181 23 7.19804 23C8.72248 23 10.035 21.924 10.334 20.4291L10.5883 19.1573C10.7229 18.4844 11.3138 18 12 18C12.6862 18 13.2771 18.4844 13.4117 19.1573L13.666 20.4291C13.965 21.924 15.2775 23 16.802 23C18.5682 23 20 21.5682 20 19.802V16H4Z" clip-rule="evenodd"></path><path fill="#024493" fill-rule="evenodd" d="M3.89335 2.91428C2.72323 4.08971 2 5.7104 2 7.5C2 7.93179 2.04224 8.3547 2.12312 8.76452C2.32768 9.80109 2.71058 10.8241 3.05847 11.7536C3.13676 11.9628 3.21331 12.1673 3.28562 12.3661C3.6977 13.4989 4 14.5066 4 15.5114V19.8019C4 21.5681 5.43181 23 7.19804 23C8.72248 23 10.035 21.9239 10.334 20.4291L10.5883 19.1572C10.7229 18.4843 11.3138 18 12 18C12.6862 18 13.2771 18.4843 13.4117 19.1572L13.666 20.4291C13.965 21.9239 15.2775 23 16.802 23C18.5682 23 20 21.5681 20 19.8019V15.5114C20 14.5066 20.3023 13.4989 20.7144 12.3661C20.7867 12.1674 20.8631 11.9631 20.9414 11.754C21.2893 10.8245 21.6723 9.80108 21.8769 8.76451C21.9578 8.3547 22 7.93179 22 7.5C22 3.91015 19.0899 1 15.5 1C14.2123 1 13.0104 1.37532 12 2.02199C10.9896 1.37532 9.78774 1 8.5 1C6.7104 1 5.08971 1.72323 3.91428 2.89335C3.91079 2.89683 3.90729 2.90032 3.90381 2.90381C3.90032 2.90729 3.89683 2.91079 3.89335 2.91428ZM4 7.5C4 7.80109 4.02943 8.09433 4.08527 8.37729C4.25507 9.23769 4.56553 10.0696 4.9084 10.9884C4.99256 11.2139 5.07867 11.4447 5.16513 11.6824C5.58544 12.8378 6 14.1296 6 15.5114V19.8019C6 20.4636 6.53638 21 7.19804 21C7.76912 21 8.26081 20.5969 8.37281 20.0369L8.62719 18.765C8.94874 17.1572 10.3604 16 12 16C13.6396 16 15.0513 17.1572 15.3728 18.765L15.6272 20.0369C15.7392 20.5969 16.2309 21 16.802 21C17.4636 21 18 20.4636 18 19.8019V15.5114C18 14.1296 18.4146 12.8378 18.8349 11.6824C18.9213 11.4447 19.0074 11.214 19.0916 10.9886C19.4344 10.0697 19.7449 9.2377 19.9147 8.37729C19.9706 8.09433 20 7.80109 20 7.5C20 5.01472 17.9853 3 15.5 3C14.8077 3 14.1528 3.15584 13.5676 3.43461C13.8579 3.85713 13.782 4.43895 13.3791 4.77137C12.953 5.12284 12.3228 5.0624 11.9713 4.63639C11.8804 4.5262 11.7839 4.41993 11.682 4.31802C10.8381 3.47411 9.69347 3 8.5 3C7.30653 3 6.16193 3.47411 5.31802 4.31802C4.47411 5.16193 4 6.30653 4 7.5Z" clip-rule="evenodd"></path><path fill="#1E93FF" d="M13 7.50002C13 7.22388 12.7761 7.00002 12.5 7.00002L11.5 7C11.2238 6.99999 11 7.22385 11 7.5V9.00009L9.5 9.00007C9.22386 9.00007 9 9.22393 9 9.50007V10.5001C9 10.7762 9.22386 11.0001 9.5 11.0001L11 11.0001L11 12.5C11 12.7761 11.2239 13 11.5 13H12.5C12.7761 13 13 12.7761 13 12.5L13 11.0001L14.5 11.0001C14.7761 11.0001 15 10.7762 15 10.5V9.50005C15 9.22391 14.7761 9.00005 14.5 9.00005L13 9.00009V7.50002Z"></path></svg>