<svg xmlns="http://www.w3.org/2000/svg" viewBox="0 0 64 64" id="heart-health"><path d="M59 22c0-.13-.15-13-13-13-8.63 0-12.44 5.41-14 8.91C30.44 14.41 26.63 9 18 9 5.15 9 5 21.87 5 21.92c0 .24-1.73 24.88 26.68 33h.05A.75.75 0 0 0 32 55a.75.75 0 0 0 .26 0C60.73 46.8 59 22.16 59 22ZM7 22c0-.45.12-11 11-11a12.78 12.78 0 0 1 13 10.18 2.18 2.18 0 0 0 .09.23.75.75 0 0 1 .06.13 1.85 1.85 0 0 0 .14.14 1.59 1.59 0 0 0 .13.13l.14.06a1.45 1.45 0 0 0 .22.09H32a.6.6 0 0 0 .19 0 .72.72 0 0 0 .2-.09 1 1 0 0 0 .16-.06l.13-.13a1.85 1.85 0 0 0 .14-.14l.06-.14a1.45 1.45 0 0 0 .12-.2A12.72 12.72 0 0 1 46 11c10.84 0 11 10.55 11 11.08a29.06 29.06 0 0 1-2.42 12.53C50.76 43.53 43.16 49.7 32 53 5.45 45.21 6.92 23 7 22Zm24.92 6.79-4 9.59A1 1 0 0 1 27 39a1 1 0 0 1-.92-.59L22.78 31l-2 2.64a1 1 0 0 1-.8.4H15a1 1 0 0 1 0-2h4.5l2.7-3.6a1 1 0 0 1 .91-.39 1 1 0 0 1 .8.58L27 35.47l4.11-9.85A1 1 0 0 1 32 25a1 1 0 0 1 .91.67l5.18 14.66 4-8.74A1 1 0 0 1 43 31h5a1 1 0 0 1 0 2h-4.36l-4.73 10.41A1 1 0 0 1 38 44a1 1 0 0 1-.9-.67Z" data-name="5-Heart Health"></path></svg>