<svg xmlns="http://www.w3.org/2000/svg" width="32" height="32" id="heart"><path fill="#ffaf99" d="M11.412 14.173c-2.363.227-3.433 3.26-3.065 5.107.93 4.654 5.269 7.527 13.28 7.15 1.763-.082 1.903-1.26 2.043-3.064.157-2.043-.567-4.086-2.043-6.129-3.065 0-4.086 0-4.086-2.043 0-2.042 3.607-2.042 3.607-2.042v-3.065h-2.586c-2.928 0-5.057 2.162-5.045 4.973-.158-.434.258-1.114-2.105-.887z"></path><path fill="#e79f8a" d="M10.057 14.67V9.566h3.045V7.522h2.043V5.485h4.086v4.602c-2.773.207-5.644 2.998-5.783 6.104.406-2.384-2.475-2.292-3.39-1.52z"></path><path fill="none" stroke="#ffcbbd" stroke-linecap="round" stroke-linejoin="round" d="M9.044 20.254c.533-.768 4.936-.708 4.801-4.046"></path><path fill="#ffaf99" d="M19.471 13.329c1.359-.316 2.61 2.679 2.105 3.956-1.533-.026-3.737.062-4.026-.987-.29-1.05-.495-2.407 1.921-2.97z"></path><path fill="#f6c6b9" d="M15.134 5.472 15.12 7.52l-2.047.015c0 1.88-1.181 2.03-3.031 2.032v5.051c.208-.176.03-.622.38-.706-.108-1.405 1.506-3.815 3.326-4.613 1.82-.798 2.87-3.452 5.481-3.826z"></path><path fill="none" stroke="#f6c6b9" stroke-linecap="round" stroke-linejoin="round" stroke-width=".999" d="M15.633 7.47a3.575 3.575 0 0 1 3.606 2.46"></path><path fill="none" stroke="#f6c6b9" stroke-linecap="round" stroke-linejoin="round" d="M15.133 8.023v1.554"></path><path fill="none" stroke="#f6c6b9" stroke-linecap="round" stroke-linejoin="round" stroke-width=".661" d="M-134.665 49.75a2.5 2.5 0 0 1-.22-2 2.5 2.5 0 0 1 1.324-1.514" transform="matrix(1.57358 -.26794 .30014 1.40475 209.87 -91.547)"></path><path fill="#ffcbbd" d="M13.503 15.709c1.073-4.021 4.448-5.191 7.304-5.578h-1.625c-2.239 0-4.645 2.166-5.367 4.336-.2.515-.257.729-.328 1.239zM11.4 14.162c-2.363.227-3.431 3.278-3.062 5.125.633 4.95 6.106 6.948 9.07 6.98-3.378-1.155-6.72-3.415-7.414-6.98-.34-1.697.524-4.396 2.5-5a2.555 2.555 0 0 0-1.094-.125z"></path><path fill="#ff8e6f" d="M17.314 26.282c.054-.022.098.096 2.264.14 2.686.385 3.691-.283 4.025-1.738.503-2.193-.51-5.973-1.983-7.46-3.065 0-4.094.013-4.094-2.03 0-2.044 3.625-2.032 3.625-2.032V10.1h-1.466v3.062s-3.69-.012-3.69 2.031.81 2.032 3.875 2.032c1.956 2.043 2.846 6.047 2.49 7.231-.354 1.185-5.046 1.826-5.046 1.826z"></path><path fill="#ff8e6f" d="M19.433 13.285c-.145.034-.248.086-.375.125 1.058.532 1.903 2.792 1.504 3.868.36.01.707.026 1.031.03.506-1.276-.801-4.34-2.16-4.023z"></path></svg>