<svg xmlns="http://www.w3.org/2000/svg" xmlns:xlink="http://www.w3.org/1999/xlink" viewBox="0 0 32 32" width="32" height="32" preserveAspectRatio="xMidYMid meet" style="width: 100%; height: 100%; transform: translate3d(0px, 0px, 0px); content-visibility: visible;"><defs><clipPath id="__lottie_element_217"><rect width="32" height="32" x="0" y="0"></rect></clipPath></defs><g clip-path="url(#__lottie_element_217)"><g transform="matrix(1.059999942779541,0,0,1.059999942779541,3.0400009155273438,3.7900009155273438)" opacity="0.9999998167425652" style="display: block;"><g opacity="1" transform="matrix(1,0,0,1,0,0)"><g opacity="1" transform="matrix(1,0,0,1,0,0)"><path fill="rgb(204,204,204)" fill-opacity="1" d=" M17.18000030517578,19.1200008392334 C17.18000030517578,19.1200008392334 6.130000114440918,19.1200008392334 6.130000114440918,19.1200008392334 M2.9600000381469727,19.1200008392334 C2.9600000381469727,19.1200008392334 0.3799999952316284,19.1200008392334 0.3799999952316284,19.1200008392334 C0.3799999952316284,19.1200008392334 0.3799999952316284,16.8799991607666 0.3799999952316284,16.8799991607666 C0.3799999952316284,16.8799991607666 23.6200008392334,16.8799991607666 23.6200008392334,16.8799991607666 C23.6200008392334,16.8799991607666 23.6200008392334,19.1200008392334 23.6200008392334,19.1200008392334 C23.6200008392334,19.1200008392334 20.34000015258789,19.1200008392334 20.34000015258789,19.1200008392334"></path></g><g opacity="1" transform="matrix(1,0,0,1,0,0)"><path fill="rgb(237,122,175)" fill-opacity="1" d=" M10.880000114440918,6.320000171661377 C10.880000114440918,6.320000171661377 10.880000114440918,5.619999885559082 10.880000114440918,5.619999885559082 C10.880000114440918,5.210000038146973 11.210000038146973,4.880000114440918 11.619999885559082,4.880000114440918 C12.029999732971191,4.880000114440918 12.380000114440918,5.210000038146973 12.380000114440918,5.619999885559082 C12.380000114440918,5.619999885559082 12.380000114440918,6.320000171661377 12.380000114440918,6.320000171661377"></path></g><g opacity="1" transform="matrix(1,0,0,1,0,0)"><path fill="rgb(242,242,242)" fill-opacity="1" d=" M14.520000457763672,7.889999866485596 C14.520000457763672,7.889999866485596 18,7.889999866485596 18,7.889999866485596 C19.450000762939453,7.889999866485596 20.6200008392334,9.069999694824219 20.6200008392334,10.520000457763672 C20.6200008392334,10.520000457763672 20.6200008392334,13.119999885559082 20.6200008392334,13.119999885559082 C20.6200008392334,13.119999885559082 21.75,13.119999885559082 21.75,13.119999885559082 C22.790000915527344,13.119999885559082 23.6200008392334,13.960000038146973 23.6200008392334,15 C23.6200008392334,15 23.6200008392334,16.889999389648438 23.6200008392334,16.889999389648438 C23.6200008392334,16.889999389648438 14.569999694824219,16.889999389648438 14.569999694824219,16.889999389648438 C14.569999694824219,16.889999389648438 14.520000457763672,7.889999866485596 14.520000457763672,7.889999866485596z"></path></g><g opacity="1" transform="matrix(1,0,0,1,0,0)"><path fill="rgb(242,242,242)" fill-opacity="1" d=" M0.3799999952316284,6.380000114440918 C0.3799999952316284,6.380000114440918 14.619999885559082,6.380000114440918 14.619999885559082,6.380000114440918 C14.619999885559082,6.380000114440918 14.619999885559082,16.8799991607666 14.619999885559082,16.8799991607666 C14.619999885559082,16.8799991607666 0.3799999952316284,16.8799991607666 0.3799999952316284,16.8799991607666 C0.3799999952316284,16.8799991607666 0.3799999952316284,6.380000114440918 0.3799999952316284,6.380000114440918z"></path></g><g opacity="1" transform="matrix(1,0,0,1,0,0)"><path fill="rgb(137,119,135)" fill-opacity="1" d=" M6.380000114440918,20.25 C6.380000114440918,22.75 2.619999885559082,22.75 2.619999885559082,20.25 C2.619999885559082,17.75 6.380000114440918,17.75 6.380000114440918,20.25"></path></g><g opacity="1" transform="matrix(1,0,0,1,0,0)"><path fill="rgb(137,119,135)" fill-opacity="1" d=" M20.6200008392334,20.25 C20.6200008392334,22.75 16.8799991607666,22.75 16.8799991607666,20.25 C16.8799991607666,17.75 20.6200008392334,17.75 20.6200008392334,20.25"></path></g><g opacity="1" transform="matrix(1,0,0,1,0,0)"><path fill="rgb(145,216,247)" fill-opacity="1" d=" M19.1200008392334,12.350000381469727 C19.1200008392334,12.350000381469727 16.1200008392334,12.350000381469727 16.1200008392334,12.350000381469727 C16.1200008392334,12.350000381469727 16.1200008392334,9.380000114440918 16.1200008392334,9.380000114440918 C16.1200008392334,9.380000114440918 17.6200008392334,9.380000114440918 17.6200008392334,9.380000114440918 C18.530000686645508,9.380000114440918 19.1299991607666,9.960000038146973 19.1299991607666,10.869999885559082 C19.1299991607666,10.869999885559082 19.1299991607666,11.949999809265137 19.1299991607666,11.949999809265137 C19.1299991607666,11.949999809265137 19.1200008392334,12.350000381469727 19.1200008392334,12.350000381469727z"></path></g><g opacity="1" transform="matrix(1,0,0,1,0,0)"><path fill="rgb(96,53,91)" fill-opacity="1" d=" M4.880000114440918,20.25 C4.880000114440918,20.75 4.119999885559082,20.75 4.119999885559082,20.25 C4.119999885559082,19.75 4.880000114440918,19.75 4.880000114440918,20.25"></path></g><g opacity="1" transform="matrix(1,0,0,1,0,0)"><path fill="rgb(96,53,91)" fill-opacity="1" d=" M19.1200008392334,20.25 C19.1200008392334,20.75 18.3799991607666,20.75 18.3799991607666,20.25 C18.3799991607666,19.75 19.1200008392334,19.75 19.1200008392334,20.25"></path></g><g opacity="1" transform="matrix(1,0,0,1,0,0)"><path fill="rgb(237,122,175)" fill-opacity="1" d=" M7.119999885559082,9.380000114440918 C7.119999885559082,9.380000114440918 7.119999885559082,10.880000114440918 7.119999885559082,10.880000114440918 C7.119999885559082,10.880000114440918 5.619999885559082,10.880000114440918 5.619999885559082,10.880000114440918 C5.619999885559082,10.880000114440918 5.619999885559082,12.380000114440918 5.619999885559082,12.380000114440918 C5.619999885559082,12.380000114440918 7.119999885559082,12.380000114440918 7.119999885559082,12.380000114440918 C7.119999885559082,12.380000114440918 7.119999885559082,13.880000114440918 7.119999885559082,13.880000114440918 C7.119999885559082,13.880000114440918 8.619999885559082,13.880000114440918 8.619999885559082,13.880000114440918 C8.619999885559082,13.880000114440918 8.619999885559082,12.380000114440918 8.619999885559082,12.380000114440918 C8.619999885559082,12.380000114440918 10.119999885559082,12.380000114440918 10.119999885559082,12.380000114440918 C10.119999885559082,12.380000114440918 10.119999885559082,10.880000114440918 10.119999885559082,10.880000114440918 C10.119999885559082,10.880000114440918 8.619999885559082,10.880000114440918 8.619999885559082,10.880000114440918 C8.619999885559082,10.880000114440918 8.619999885559082,9.380000114440918 8.619999885559082,9.380000114440918 C8.619999885559082,9.380000114440918 7.119999885559082,9.380000114440918 7.119999885559082,9.380000114440918z"></path></g><g opacity="1" transform="matrix(1,0,0,1,0,0)"><path fill="rgb(96,53,91)" fill-opacity="1" d=" M18.75,18.75 C19.579999923706055,18.75 20.25,19.420000076293945 20.25,20.25 C20.25,21.079999923706055 19.579999923706055,21.75 18.75,21.75 C17.920000076293945,21.75 17.25,21.079999923706055 17.25,20.25 C17.25,19.420000076293945 17.920000076293945,18.75 18.75,18.75 C18.75,18.75 18.75,18.75 18.75,18.75z M4.5,18.75 C5.329999923706055,18.75 6,19.420000076293945 6,20.25 C6,21.079999923706055 5.329999923706055,21.75 4.5,21.75 C3.6700000762939453,21.75 3,21.079999923706055 3,20.25 C3,19.420000076293945 3.6700000762939453,18.75 4.5,18.75 C4.5,18.75 4.5,18.75 4.5,18.75z M0.75,17.25 C0.75,17.25 23.25,17.25 23.25,17.25 C23.25,17.25 23.25,18.75 23.25,18.75 C23.25,18.75 20.40999984741211,18.75 20.40999984741211,18.75 C20,18.290000915527344 19.40999984741211,18 18.75,18 C18.09000015258789,18 17.5,18.290000915527344 17.09000015258789,18.75 C17.09000015258789,18.75 6.159999847412109,18.75 6.159999847412109,18.75 C5.75,18.290000915527344 5.159999847412109,18 4.5,18 C3.8399999141693115,18 3.240000009536743,18.290000915527344 2.8299999237060547,18.75 C2.8299999237060547,18.75 0.75,18.75 0.75,18.75 C0.75,18.75 0.75,17.25 0.75,17.25z M16.1200008392334,13.5 C16.1200008392334,13.5 16.1200008392334,13.5 16.1200008392334,13.5 C15.90999984741211,13.5 15.75,13.670000076293945 15.75,13.880000114440918 C15.75,14.09000015258789 15.90999984741211,14.25 16.1200008392334,14.25 C16.1200008392334,14.25 16.8799991607666,14.25 16.8799991607666,14.25 C17.09000015258789,14.25 17.25,14.09000015258789 17.25,13.880000114440918 C17.25,13.670000076293945 17.09000015258789,13.5 16.8799991607666,13.5 C16.8799991607666,13.5 16.1200008392334,13.5 16.1200008392334,13.5 C16.1200008392334,13.5 16.1200008392334,13.5 16.1200008392334,13.5z M16.5,9.75 C16.5,9.75 17.6200008392334,9.75 17.6200008392334,9.75 C18,9.75 18.270000457763672,9.859999656677246 18.459999084472656,10.039999961853027 C18.639999389648438,10.220000267028809 18.75,10.489999771118164 18.75,10.859999656677246 C18.75,10.859999656677246 18.75,11.979999542236328 18.75,11.979999542236328 C18.75,11.979999542236328 16.5,11.979999542236328 16.5,11.979999542236328 C16.5,11.979999542236328 16.5,9.75 16.5,9.75z M7.5,9.75 C7.5,9.75 8.25,9.75 8.25,9.75 C8.25,9.75 8.25,10.880000114440918 8.25,10.880000114440918 C8.25,10.979999542236328 8.289999961853027,11.069999694824219 8.359999656677246,11.140000343322754 C8.430000305175781,11.210000038146973 8.520000457763672,11.25 8.619999885559082,11.25 C8.619999885559082,11.25 9.75,11.25 9.75,11.25 C9.75,11.25 9.75,12 9.75,12 C9.75,12 8.619999885559082,12 8.619999885559082,12 C8.40999984741211,12 8.25,12.170000076293945 8.25,12.380000114440918 C8.25,12.380000114440918 8.25,13.5 8.25,13.5 C8.25,13.5 7.5,13.5 7.5,13.5 C7.5,13.5 7.5,12.380000114440918 7.5,12.380000114440918 C7.5,12.279999732971191 7.460000038146973,12.180000305175781 7.389999866485596,12.109999656677246 C7.320000171661377,12.039999961853027 7.21999979019165,12 7.119999885559082,12 C7.119999885559082,12 6,12 6,12 C6,12 6,11.25 6,11.25 C6,11.25 7.119999885559082,11.25 7.119999885559082,11.25 C7.21999979019165,11.25 7.320000171661377,11.210000038146973 7.389999866485596,11.140000343322754 C7.460000038146973,11.069999694824219 7.5,10.979999542236328 7.5,10.880000114440918 C7.5,10.880000114440918 7.5,9.75 7.5,9.75z M15.75,9 C15.75,9 15.75,12.720000267028809 15.75,12.720000267028809 C15.75,12.720000267028809 19.5,12.720000267028809 19.5,12.720000267028809 C19.5,12.720000267028809 19.5,12.350000381469727 19.5,12.350000381469727 C19.5,12.350000381469727 19.5,11.949999809265137 19.5,11.949999809265137 C19.5,11.949999809265137 19.5,10.869999885559082 19.5,10.869999885559082 C19.5,10.329999923706055 19.31999969482422,9.850000381469727 18.979999542236328,9.510000228881836 C18.639999389648438,9.170000076293945 18.15999984741211,9 17.6200008392334,9 C17.6200008392334,9 15.75,9 15.75,9 C15.75,9 15.75,9 15.75,9z M7.119999885559082,9 C7.119999885559082,9 7.119999885559082,9 7.119999885559082,9 C6.909999847412109,9 6.75,9.170000076293945 6.75,9.380000114440918 C6.75,9.380000114440918 6.75,10.5 6.75,10.5 C6.75,10.5 5.619999885559082,10.5 5.619999885559082,10.5 C5.409999847412109,10.5 5.25,10.670000076293945 5.25,10.880000114440918 C5.25,10.880000114440918 5.25,12.380000114440918 5.25,12.380000114440918 C5.25,12.479999542236328 5.289999961853027,12.569999694824219 5.360000133514404,12.640000343322754 C5.429999828338623,12.710000038146973 5.519999980926514,12.75 5.619999885559082,12.75 C5.619999885559082,12.75 6.75,12.75 6.75,12.75 C6.75,12.75 6.75,13.880000114440918 6.75,13.880000114440918 C6.75,13.979999542236328 6.789999961853027,14.069999694824219 6.860000133514404,14.140000343322754 C6.929999828338623,14.210000038146973 7.019999980926514,14.25 7.119999885559082,14.25 C7.119999885559082,14.25 8.619999885559082,14.25 8.619999885559082,14.25 C8.720000267028809,14.25 8.819999694824219,14.210000038146973 8.890000343322754,14.140000343322754 C8.960000038146973,14.069999694824219 9,13.979999542236328 9,13.880000114440918 C9,13.880000114440918 9,12.75 9,12.75 C9,12.75 10.119999885559082,12.75 10.119999885559082,12.75 C10.220000267028809,12.75 10.319999694824219,12.710000038146973 10.390000343322754,12.640000343322754 C10.460000038146973,12.569999694824219 10.5,12.479999542236328 10.5,12.380000114440918 C10.5,12.380000114440918 10.5,10.880000114440918 10.5,10.880000114440918 C10.5,10.779999732971191 10.460000038146973,10.680000305175781 10.390000343322754,10.609999656677246 C10.319999694824219,10.539999961853027 10.220000267028809,10.5 10.119999885559082,10.5 C10.119999885559082,10.5 9,10.5 9,10.5 C9,10.5 9,9.380000114440918 9,9.380000114440918 C9,9.279999732971191 8.960000038146973,9.180000305175781 8.890000343322754,9.109999656677246 C8.819999694824219,9.039999961853027 8.720000267028809,9 8.619999885559082,9 C8.619999885559082,9 7.119999885559082,9 7.119999885559082,9 C7.119999885559082,9 7.119999885559082,9 7.119999885559082,9z M15,8.270000457763672 C15,8.270000457763672 18,8.270000457763672 18,8.270000457763672 C19.25,8.270000457763672 20.25,9.270000457763672 20.25,10.520000457763672 C20.25,10.520000457763672 20.25,13.5 20.25,13.5 C20.25,13.5 21.75,13.5 21.75,13.5 C22.59000015258789,13.5 23.25,14.15999984741211 23.25,15 C23.25,15 22.1200008392334,15 22.1200008392334,15 C22.1200008392334,15 22.1200008392334,15 22.1200008392334,15 C21.90999984741211,15 21.739999771118164,15.170000076293945 21.739999771118164,15.380000114440918 C21.739999771118164,15.59000015258789 21.90999984741211,15.75 22.1200008392334,15.75 C22.1200008392334,15.75 23.25,15.75 23.25,15.75 C23.25,15.75 23.25,16.5 23.25,16.5 C23.25,16.5 15,16.5 15,16.5 C15,16.5 15,8.270000457763672 15,8.270000457763672z M0.75,6.75 C0.75,6.75 14.25,6.75 14.25,6.75 C14.25,6.75 14.25,16.5 14.25,16.5 C14.25,16.5 0.75,16.5 0.75,16.5 C0.75,16.5 0.75,15.75 0.75,15.75 C0.75,15.75 1.8799999952316284,15.75 1.8799999952316284,15.75 C1.8799999952316284,15.75 1.8799999952316284,15.75 1.8799999952316284,15.75 C2.0899999141693115,15.75 2.259999990463257,15.59000015258789 2.259999990463257,15.380000114440918 C2.259999990463257,15.170000076293945 2.0899999141693115,15 1.8799999952316284,15 C1.8799999952316284,15 0.75,15 0.75,15 C0.75,15 0.75,6.75 0.75,6.75z M11.619999885559082,5.25 C11.829999923706055,5.25 12,5.409999847412109 12,5.619999885559082 C12,5.619999885559082 12,6 12,6 C12,6 11.25,6 11.25,6 C11.25,6 11.25,5.619999885559082 11.25,5.619999885559082 C11.25,5.409999847412109 11.40999984741211,5.25 11.619999885559082,5.25 C11.619999885559082,5.25 11.619999885559082,5.25 11.619999885559082,5.25z M11.619999885559082,4.5 C11,4.5 10.5,5 10.5,5.619999885559082 C10.5,5.619999885559082 10.5,6 10.5,6 C10.5,6 0.3799999952316284,6 0.3799999952316284,6 C0.3799999952316284,6 0.3799999952316284,6 0.3799999952316284,6 C0.17000000178813934,6 0,6.170000076293945 0,6.380000114440918 C0,6.380000114440918 0,19.1200008392334 0,19.1200008392334 C0,19.219999313354492 0.03999999910593033,19.31999969482422 0.10999999940395355,19.389999389648438 C0.18000000715255737,19.459999084472656 0.2800000011920929,19.5 0.3799999952316284,19.5 C0.3799999952316284,19.5 2.390000104904175,19.5 2.390000104904175,19.5 C2.299999952316284,19.739999771118164 2.25,19.989999771118164 2.25,20.25 C2.25,21.489999771118164 3.259999990463257,22.5 4.5,22.5 C5.739999771118164,22.5 6.75,21.489999771118164 6.75,20.25 C6.75,19.989999771118164 6.699999809265137,19.739999771118164 6.610000133514404,19.5 C6.610000133514404,19.5 16.639999389648438,19.5 16.639999389648438,19.5 C16.549999237060547,19.739999771118164 16.5,19.989999771118164 16.5,20.25 C16.5,21.489999771118164 17.510000228881836,22.5 18.75,22.5 C19.989999771118164,22.5 21,21.489999771118164 21,20.25 C21,19.989999771118164 20.950000762939453,19.739999771118164 20.860000610351562,19.5 C20.860000610351562,19.5 23.6200008392334,19.5 23.6200008392334,19.5 C23.719999313354492,19.5 23.81999969482422,19.459999084472656 23.889999389648438,19.389999389648438 C23.959999084472656,19.31999969482422 24,19.219999313354492 24,19.1200008392334 C24,19.1200008392334 24,15 24,15 C24,13.760000228881836 22.989999771118164,12.75 21.75,12.75 C21.75,12.75 21,12.75 21,12.75 C21,12.75 21,10.520000457763672 21,10.520000457763672 C21,8.859999656677246 19.65999984741211,7.519999980926514 18,7.519999980926514 C18,7.519999980926514 15,7.519999980926514 15,7.519999980926514 C15,7.519999980926514 15,6.380000114440918 15,6.380000114440918 C15,6.28000020980835 14.960000038146973,6.179999828338623 14.890000343322754,6.110000133514404 C14.819999694824219,6.039999961853027 14.720000267028809,6 14.619999885559082,6 C14.619999885559082,6 12.75,6 12.75,6 C12.75,6 12.75,5.619999885559082 12.75,5.619999885559082 C12.75,5 12.239999771118164,4.5 11.619999885559082,4.5 C11.619999885559082,4.5 11.619999885559082,4.5 11.619999885559082,4.5z M13.649999618530273,3.2100000381469727 C13.550000190734863,3.2100000381469727 13.460000038146973,3.259999990463257 13.390000343322754,3.3299999237060547 C13.390000343322754,3.3299999237060547 12.859999656677246,3.859999895095825 12.859999656677246,3.859999895095825 C12.859999656677246,3.859999895095825 12.859999656677246,3.859999895095825 12.859999656677246,3.859999895095825 C12.789999961853027,3.930000066757202 12.75,4.019999980926514 12.75,4.119999885559082 C12.75,4.21999979019165 12.789999961853027,4.320000171661377 12.859999656677246,4.389999866485596 C12.930000305175781,4.460000038146973 13.029999732971191,4.5 13.130000114440918,4.5 C13.229999542236328,4.5 13.319999694824219,4.460000038146973 13.390000343322754,4.389999866485596 C13.390000343322754,4.389999866485596 13.930000305175781,3.859999895095825 13.930000305175781,3.859999895095825 C14.039999961853027,3.75 14.069999694824219,3.5799999237060547 14.010000228881836,3.440000057220459 C13.949999809265137,3.299999952316284 13.8100004196167,3.2100000381469727 13.649999618530273,3.2100000381469727 C13.649999618530273,3.2100000381469727 13.649999618530273,3.2100000381469727 13.649999618530273,3.2100000381469727z M9.59000015258789,3.2100000381469727 C9.4399995803833,3.2100000381469727 9.300000190734863,3.309999942779541 9.239999771118164,3.450000047683716 C9.180000305175781,3.5899999141693115 9.210000038146973,3.75 9.319999694824219,3.859999895095825 C9.319999694824219,3.859999895095825 9.859999656677246,4.389999866485596 9.859999656677246,4.389999866485596 C9.930000305175781,4.460000038146973 10.020000457763672,4.5 10.119999885559082,4.5 C10.220000267028809,4.5 10.319999694824219,4.460000038146973 10.390000343322754,4.389999866485596 C10.460000038146973,4.320000171661377 10.5,4.21999979019165 10.5,4.119999885559082 C10.5,4.019999980926514 10.460000038146973,3.930000066757202 10.390000343322754,3.859999895095825 C10.390000343322754,3.859999895095825 9.859999656677246,3.319999933242798 9.859999656677246,3.319999933242798 C9.859999656677246,3.319999933242798 9.859999656677246,3.3299999237060547 9.859999656677246,3.3299999237060547 C9.789999961853027,3.259999990463257 9.6899995803833,3.2100000381469727 9.59000015258789,3.2100000381469727 C9.59000015258789,3.2100000381469727 9.59000015258789,3.2100000381469727 9.59000015258789,3.2100000381469727z M11.619999885559082,2.240000009536743 C11.420000076293945,2.240000009536743 11.25,2.4100000858306885 11.25,2.619999885559082 C11.25,2.619999885559082 11.25,3.369999885559082 11.25,3.369999885559082 C11.25,3.5799999237060547 11.40999984741211,3.75 11.619999885559082,3.75 C11.829999923706055,3.75 12,3.5799999237060547 12,3.369999885559082 C12,3.369999885559082 12,2.619999885559082 12,2.619999885559082 C12,2.5199999809265137 11.960000038146973,2.4200000762939453 11.890000343322754,2.3499999046325684 C11.819999694824219,2.2799999713897705 11.720000267028809,2.240000009536743 11.619999885559082,2.240000009536743 C11.619999885559082,2.240000009536743 11.619999885559082,2.240000009536743 11.619999885559082,2.240000009536743z"></path></g></g></g></g></svg>