            <svg id="sw-js-blob-svg" viewBox="0 0 100 100" xmlns="http://www.w3.org/2000/svg">                    <defs>                         <linearGradient id="sw-gradient" x1="0" x2="1" y1="1" y2="0">                            <stop id="stop1" stop-color="rgba(55, 205.505, 248, 1)" offset="0%"></stop>                            <stop id="stop2" stop-color="rgba(31, 113.131, 251, 1)" offset="100%"></stop>                        </linearGradient>                    </defs>                <path fill="url(#sw-gradient)" d="M22.1,-37.7C28.7,-34.5,34,-28.6,37.9,-21.9C41.8,-15.1,44.2,-7.6,44.6,0.3C45.1,8.1,43.5,16.2,39,21.8C34.5,27.4,27,30.6,20,34.5C13,38.4,6.5,43.2,-0.6,44.2C-7.7,45.2,-15.4,42.6,-22.2,38.5C-29,34.5,-34.9,29,-39.2,22.4C-43.5,15.7,-46.3,7.9,-45.8,0.3C-45.2,-7.2,-41.4,-14.5,-36.8,-20.6C-32.2,-26.8,-26.7,-31.8,-20.4,-35.2C-14.2,-38.6,-7.1,-40.3,0.3,-40.9C7.8,-41.5,15.6,-40.9,22.1,-37.7Z" width="100%" height="100%" transform="translate(50 50)" stroke-width="0" style="transition: all 0.3s ease 0s;"></path>              </svg>