<svg class="animated" id="freepik_stories-contraception-methods" xmlns="http://www.w3.org/2000/svg" viewBox="0 0 500 500" version="1.1" xmlns:xlink="http://www.w3.org/1999/xlink" xmlns:svgjs="http://svgjs.com/svgjs"><style>svg#freepik_stories-contraception-methods:not(.animated) .animable {opacity: 0;}svg#freepik_stories-contraception-methods.animated #freepik--Character--inject-166 {animation: 1s 1 forwards linear slideDown,1.5s Infinite  linear floating;animation-delay: 0s,1s;}            @keyframes slideDown {                0% {                    opacity: 0;                    transform: translateY(-30px);                }                100% {                    opacity: 1;                    transform: translateY(0);                }            }                    @keyframes floating {                0% {                    opacity: 1;                    transform: translateY(0px);                }                50% {                    transform: translateY(-10px);                }                100% {                    opacity: 1;                    transform: translateY(0px);                }            }        </style><g id="freepik--background-complete--inject-166" class="animable animator-active" style="transform-origin: 250px 228.23px;"><rect y="382.4" width="500" height="0.25" style="fill: rgb(235, 235, 235); transform-origin: 250px 382.525px;" id="el10rfx60p7nlp" class="animable"></rect><rect x="416.78" y="398.49" width="33.12" height="0.25" style="fill: rgb(235, 235, 235); transform-origin: 433.34px 398.615px;" id="elozixi02rlh" class="animable"></rect><rect x="322.53" y="401.21" width="8.69" height="0.25" style="fill: rgb(235, 235, 235); transform-origin: 326.875px 401.335px;" id="elih7vlzz4ck" class="animable"></rect><rect x="396.59" y="389.21" width="19.19" height="0.25" style="fill: rgb(235, 235, 235); transform-origin: 406.185px 389.335px;" id="elkiyfvqgfugj" class="animable"></rect><rect x="52.46" y="390.89" width="43.19" height="0.25" style="fill: rgb(235, 235, 235); transform-origin: 74.055px 391.015px;" id="ellia2alokwf" class="animable"></rect><rect x="104.56" y="390.89" width="6.33" height="0.25" style="fill: rgb(235, 235, 235); transform-origin: 107.725px 391.015px;" id="el6wp7kqok5qk" class="animable"></rect><rect x="131.47" y="395.11" width="93.68" height="0.25" style="fill: rgb(235, 235, 235); transform-origin: 178.31px 395.235px;" id="elirn8g0nlf5c" class="animable"></rect><path d="M237,337.8H43.91a5.71,5.71,0,0,1-5.7-5.71V60.66A5.71,5.71,0,0,1,43.91,55H237a5.71,5.71,0,0,1,5.71,5.71V332.09A5.71,5.71,0,0,1,237,337.8ZM43.91,55.2a5.46,5.46,0,0,0-5.45,5.46V332.09a5.46,5.46,0,0,0,5.45,5.46H237a5.47,5.47,0,0,0,5.46-5.46V60.66A5.47,5.47,0,0,0,237,55.2Z" style="fill: rgb(235, 235, 235); transform-origin: 140.46px 196.4px;" id="elurvdw6owo5" class="animable"></path><path d="M453.31,337.8H260.21a5.72,5.72,0,0,1-5.71-5.71V60.66A5.72,5.72,0,0,1,260.21,55h193.1A5.71,5.71,0,0,1,459,60.66V332.09A5.71,5.71,0,0,1,453.31,337.8ZM260.21,55.2a5.47,5.47,0,0,0-5.46,5.46V332.09a5.47,5.47,0,0,0,5.46,5.46h193.1a5.47,5.47,0,0,0,5.46-5.46V60.66a5.47,5.47,0,0,0-5.46-5.46Z" style="fill: rgb(235, 235, 235); transform-origin: 356.75px 196.4px;" id="el4balg5umbfg" class="animable"></path><g id="el9fb936woo4"><rect x="163.14" y="163.45" width="33.85" height="218.95" style="fill: rgb(224, 224, 224); transform-origin: 180.065px 272.925px; transform: rotate(180deg);" class="animable" id="elsrcza7lltx"></rect></g><polygon points="76.85 382.4 190.21 382.4 202.11 112.91 88.76 112.91 76.85 382.4" style="fill: rgb(230, 230, 230); transform-origin: 139.48px 247.655px;" id="elmp7m4zum93c" class="animable"></polygon><polygon points="60.32 382.4 185.7 382.4 197.61 112.91 72.22 112.91 60.32 382.4" style="fill: rgb(240, 240, 240); transform-origin: 128.965px 247.655px;" id="el16r5vmexedf" class="animable"></polygon><polygon points="173.43 369.19 183.46 126.12 84.5 126.12 74.47 369.19 173.43 369.19" style="fill: rgb(255, 255, 255); transform-origin: 128.965px 247.655px;" id="elpz52xp9x0i" class="animable"></polygon><polygon points="130.91 369.19 164.54 126.12 153.99 126.12 120.35 369.19 130.91 369.19" style="fill: rgb(250, 250, 250); transform-origin: 142.445px 247.655px;" id="elqzenjmh40s" class="animable"></polygon><polygon points="115.88 369.19 149.52 126.12 131.52 126.12 97.89 369.19 115.88 369.19" style="fill: rgb(250, 250, 250); transform-origin: 123.705px 247.655px;" id="elys22k00yk3k" class="animable"></polygon><g id="eljnf7t8nem99"><rect x="285.04" y="91.31" width="118.43" height="82.72" style="fill: rgb(240, 240, 240); transform-origin: 344.255px 132.67px; transform: rotate(180deg);" class="animable" id="elo4ttvcv4h7"></rect></g><g id="el2suew7934nc"><rect x="279.08" y="91.31" width="123.33" height="82.72" style="fill: rgb(245, 245, 245); transform-origin: 340.745px 132.67px; transform: rotate(180deg);" class="animable" id="elmtd965wf1x"></rect></g><g id="ellmipsaj87jg"><rect x="305.9" y="77.53" width="69.69" height="110.29" style="fill: rgb(255, 255, 255); transform-origin: 340.745px 132.675px; transform: rotate(90deg);" class="animable" id="elw31qcofyzqf"></rect></g><g id="el0yu58dmung2"><rect x="343.49" y="115.98" width="35.9" height="33.38" rx="6.42" style="fill: rgb(245, 245, 245); transform-origin: 361.44px 132.67px; transform: rotate(90deg);" class="animable" id="el8sganu12p66"></rect></g><g id="ell2fa0om300f"><rect x="302.09" y="115.98" width="35.9" height="33.38" rx="6.42" style="fill: rgb(245, 245, 245); transform-origin: 320.04px 132.67px; transform: rotate(90deg);" class="animable" id="eli0x5f03odx"></rect></g><g id="elvanbba931u"><rect x="226.23" y="252.68" width="33" height="129.71" style="fill: rgb(230, 230, 230); transform-origin: 242.73px 317.535px; transform: rotate(180deg);" class="animable" id="elsjxbn1g1icl"></rect></g><polygon points="232.5 382.4 226.23 382.4 226.23 359.16 239.07 359.16 232.5 382.4" style="fill: rgb(240, 240, 240); transform-origin: 232.65px 370.78px;" id="elsmx788scynf" class="animable"></polygon><g id="elbqrbm3qktwv"><rect x="414.54" y="252.68" width="33" height="129.71" style="fill: rgb(230, 230, 230); transform-origin: 431.04px 317.535px; transform: rotate(180deg);" class="animable" id="el6pldf85bogo"></rect></g><g id="el2q0ldrou3oo"><rect x="226.23" y="252.68" width="193.78" height="123.37" style="fill: rgb(240, 240, 240); transform-origin: 323.12px 314.365px; transform: rotate(180deg);" class="animable" id="elzpswiijs7x"></rect></g><polygon points="413.75 382.4 420.01 382.4 420.01 359.16 407.17 359.16 413.75 382.4" style="fill: rgb(240, 240, 240); transform-origin: 413.59px 370.78px;" id="elyd90nyd3yh9" class="animable"></polygon><g id="eld7hpsb1fluj"><rect x="333.18" y="285.23" width="103.34" height="57.44" style="fill: rgb(230, 230, 230); transform-origin: 384.85px 313.95px; transform: rotate(-90deg);" class="animable" id="elxklvaxcu0ar"></rect></g><path d="M379.17,267.63h11.36a16.6,16.6,0,0,0,13.05-6.88H366.12A16.6,16.6,0,0,0,379.17,267.63Z" style="fill: rgb(240, 240, 240); transform-origin: 384.85px 264.19px;" id="el19mx8f7pltc" class="animable"></path><g id="elumu0cq64jzf"><rect x="271.45" y="285.23" width="103.34" height="57.44" style="fill: rgb(230, 230, 230); transform-origin: 323.12px 313.95px; transform: rotate(-90deg);" class="animable" id="elw5517u7n7yc"></rect></g><path d="M316.86,267.63h11.37c4.93,0,9.65-2.49,13-6.88H303.81C307.21,265.14,311.93,267.63,316.86,267.63Z" style="fill: rgb(240, 240, 240); transform-origin: 322.52px 264.19px;" id="elxnug8m3ucha" class="animable"></path><g id="el1qi87oh8bx6"><rect x="209.73" y="285.23" width="103.34" height="57.44" style="fill: rgb(230, 230, 230); transform-origin: 261.4px 313.95px; transform: rotate(-90deg);" class="animable" id="elmfap5z0x50d"></rect></g><path d="M255.14,267.63H266.5a16.6,16.6,0,0,0,13.05-6.88H242.09A16.6,16.6,0,0,0,255.14,267.63Z" style="fill: rgb(240, 240, 240); transform-origin: 260.82px 264.19px;" id="elm1nleple7rr" class="animable"></path><rect x="359.84" y="196.2" width="49.36" height="56.33" rx="6.8" style="fill: rgb(245, 245, 245); transform-origin: 384.52px 224.365px;" id="elve59ffx1jh" class="animable"></rect><path d="M281.11,212.69s1.22,39.85,47.87,39.85,47.88-39.85,47.88-39.85Z" style="fill: rgb(240, 240, 240); transform-origin: 328.985px 232.615px;" id="elma0c3cf8efh" class="animable"></path></g><g id="freepik--Shadow--inject-166" class="animable" style="transform-origin: 250px 416.24px;"><ellipse id="freepik--path--inject-166" cx="250" cy="416.24" rx="193.89" ry="11.32" style="fill: rgb(245, 245, 245); transform-origin: 250px 416.24px;" class="animable"></ellipse></g><g id="freepik--contraception-methods--inject-166" class="animable" style="transform-origin: 257.39px 146.97px;"><g id="eleyxazuohqr"><circle cx="250.6" cy="52.47" r="20.58" style="fill: #158668; transform-origin: 250.6px 52.47px; transform: rotate(-2.85deg);" class="animable" id="el3osylmajp4k"></circle></g><polygon points="253.56 52.01 248.43 54.54 244.1 45.76 245.93 43.01 249.23 43.23 253.56 52.01" style="fill: rgb(255, 255, 255); transform-origin: 248.83px 48.775px;" id="elz43eruwrjip" class="animable"></polygon><path d="M246.47,44.6a.51.51,0,0,1-.45-.27L243,38.14a.5.5,0,0,1,.9-.44l3,6.18a.5.5,0,0,1-.23.67A.42.42,0,0,1,246.47,44.6Z" style="fill: rgb(255, 255, 255); transform-origin: 244.95px 41.0096px;" id="elp4tx8rqxmed" class="animable"></path><g id="el7b4viz1ckcm"><polygon points="256.81 58.59 253.81 52.5 248.68 55.03 251.68 61.12 249.96 61.97 250.31 62.67 258.87 58.44 258.53 57.74 256.81 58.59" style="fill: rgb(255, 255, 255); opacity: 0.4; transform-origin: 253.775px 57.585px;" class="animable" id="elgno7y5m2uz8"></polygon></g><polygon points="257.65 63.62 252.49 53.16 250 54.38 255.16 64.84 254.32 65.26 254.68 65.97 258.83 63.92 258.48 63.2 257.65 63.62" style="fill: rgb(255, 255, 255); transform-origin: 254.415px 59.565px;" id="el9qjgcjgz3ee" class="animable"></polygon><path d="M347.82,89.28a20.58,20.58,0,1,1-4.59-28.74A20.58,20.58,0,0,1,347.82,89.28Z" style="fill: #158668; transform-origin: 331.155px 77.205px;" id="el1o7e3nnq20g" class="animable"></path><path d="M338.13,66.69,334.28,72a.16.16,0,0,1-.26,0c-.38-.65-1.23-2.91,3.91-5.53A.16.16,0,0,1,338.13,66.69Z" style="fill: rgb(255, 255, 255); transform-origin: 335.934px 69.2633px;" id="el2cjjnhqo849" class="animable"></path><path d="M327.65,87.79a.53.53,0,0,1-.24-.06.49.49,0,0,1-.19-.68l7.59-13.69a.87.87,0,0,0,0-.91l-.7-1a.49.49,0,0,1,.13-.69.5.5,0,0,1,.69.12l.7,1a1.87,1.87,0,0,1,.1,2l-7.6,13.7A.5.5,0,0,1,327.65,87.79Z" style="fill: rgb(255, 255, 255); transform-origin: 331.562px 79.2332px;" id="elfgvpwf5lmm" class="animable"></path><path d="M329.7,91.81a3.07,3.07,0,1,1,.48,0A2.59,2.59,0,0,1,329.7,91.81Zm0-5.06a1.83,1.83,0,0,0-.33,0,2,2,0,0,0-1.32.82,2,2,0,0,0,.45,2.83,2,2,0,0,0,2.84-.45h0a2,2,0,0,0-1.64-3.22Z" style="fill: rgb(255, 255, 255); transform-origin: 329.94px 88.7503px;" id="el967gx8mnc4p" class="animable"></path><path d="M339,67.31l-3.85,5.31a.15.15,0,0,0,.08.24c.74.17,3.16.26,4-5.44A.15.15,0,0,0,339,67.31Z" style="fill: rgb(255, 255, 255); transform-origin: 337.173px 70.0992px;" id="elu0n072f9lhm" class="animable"></path><path d="M322.67,84.18a.48.48,0,0,1-.34-.14.48.48,0,0,1,0-.7L333,71.85a1.85,1.85,0,0,1,1.89-.51l1.17.35a.49.49,0,0,1,.34.62.5.5,0,0,1-.62.33l-1.17-.35a.87.87,0,0,0-.88.24L323,84A.52.52,0,0,1,322.67,84.18Z" style="fill: rgb(255, 255, 255); transform-origin: 329.301px 77.7203px;" id="elvalqnaxbt1g" class="animable"></path><path d="M320.61,85.23a3,3,0,0,1-1.77-.58,3,3,0,0,1-.68-4.24h0a3.05,3.05,0,0,1,2-1.21,3,3,0,0,1,2.25.54,3,3,0,0,1-1.3,5.45A3.88,3.88,0,0,1,320.61,85.23Zm0-5.07a1.84,1.84,0,0,0-.33,0A2,2,0,0,0,319,81h0a2,2,0,1,0,2.84-.45A2,2,0,0,0,320.62,80.16Zm-2.06.55h0Z" style="fill: rgb(255, 255, 255); transform-origin: 320.642px 82.1958px;" id="elbzn8f7cq88s" class="animable"></path><g id="ellk6tsjplk0n"><circle cx="376.97" cy="147.93" r="20.58" style="fill: #158668; transform-origin: 376.97px 147.93px; transform: rotate(-14.13deg);" class="animable" id="elpal0ef7t64r"></circle></g><g id="el0400fw3d5j6a"><path d="M390,145.74l-4.41,14a3.09,3.09,0,0,1-3.85,2l-16.58-5.22a3.07,3.07,0,0,1-2-3.85l5.22-16.57a3.07,3.07,0,0,1,3.85-2l14,4.41-.8,2.56a3.07,3.07,0,0,0,2,3.85Z" style="fill: rgb(255, 255, 255); opacity: 0.5; transform-origin: 376.509px 147.918px;" class="animable" id="eld1rxlrmaflw"></path></g><g id="elb8ztzaenwyl"><path d="M388.4,145.24l-4.41,14a1.41,1.41,0,0,1-1.76.92L365.66,155a1.42,1.42,0,0,1-.92-1.76L370,136.62a1.4,1.4,0,0,1,1.76-.91l14,4.41-.3,1a3.07,3.07,0,0,0,2,3.85Z" style="fill: rgb(255, 255, 255); opacity: 0.5; transform-origin: 376.54px 147.933px;" class="animable" id="eloggjg0m376r"></path></g><g id="elef0jowld2n4"><path d="M377.81,148.2a.88.88,0,1,1-.57-1.11A.89.89,0,0,1,377.81,148.2Z" style="fill: rgb(255, 255, 255); opacity: 0.5; transform-origin: 376.972px 147.928px;" class="animable" id="el57ysx6vqonx"></path></g><g id="ell69l6cgkuue"><path d="M376.91,151.08a.88.88,0,0,1-1.11.58.9.9,0,0,1-.58-1.11.89.89,0,0,1,1.69.53Z" style="fill: rgb(255, 255, 255); opacity: 0.5; transform-origin: 376.056px 150.856px;" class="animable" id="elrwfx2zpmwm"></path></g><g id="elnu3kkt232hp"><path d="M378.72,145.32a.88.88,0,1,1-.57-1.11A.88.88,0,0,1,378.72,145.32Z" style="fill: rgb(255, 255, 255); opacity: 0.5; transform-origin: 377.883px 145.049px;" class="animable" id="eliivhnyh2x3b"></path></g><g id="ele8wst27i45f"><path d="M380.7,149.11a.88.88,0,0,1-1.11.57.88.88,0,0,1,.53-1.68A.89.89,0,0,1,380.7,149.11Z" style="fill: rgb(255, 255, 255); opacity: 0.5; transform-origin: 379.857px 148.841px;" class="animable" id="el84ancr588a9"></path></g><g id="elz0uxoc1fva"><path d="M379.79,152a.88.88,0,1,1-1.68-.53.88.88,0,0,1,1.68.53Z" style="fill: rgb(255, 255, 255); opacity: 0.5; transform-origin: 378.95px 151.735px;" class="animable" id="el6c9se0ut9mg"></path></g><g id="elenhm8jd6cb"><path d="M381.61,146.22a.88.88,0,0,1-1.11.58.9.9,0,0,1-.58-1.11.89.89,0,0,1,1.69.53Z" style="fill: rgb(255, 255, 255); opacity: 0.5; transform-origin: 380.756px 145.996px;" class="animable" id="elbffi960ukco"></path></g><g id="el15a1np9fwuu"><path d="M383.58,150a.88.88,0,0,1-1.68-.52.88.88,0,1,1,1.68.52Z" style="fill: rgb(255, 255, 255); opacity: 0.5; transform-origin: 382.75px 149.707px;" class="animable" id="el4w8ia7i3d3m"></path></g><g id="ello9mxnnrad"><path d="M382.67,152.9a.88.88,0,1,1-.57-1.11A.89.89,0,0,1,382.67,152.9Z" style="fill: rgb(255, 255, 255); opacity: 0.5; transform-origin: 381.832px 152.628px;" class="animable" id="elklr5thz35x"></path></g><g id="elhabbfpseck7"><path d="M384.49,147.13a.88.88,0,1,1-.58-1.11A.89.89,0,0,1,384.49,147.13Z" style="fill: rgb(255, 255, 255); opacity: 0.5; transform-origin: 383.651px 146.861px;" class="animable" id="el82hbb7lawwn"></path></g><g id="elx1shreiiqnm"><path d="M374.93,147.29a.88.88,0,1,1-.58-1.11A.89.89,0,0,1,374.93,147.29Z" style="fill: rgb(255, 255, 255); opacity: 0.5; transform-origin: 374.091px 147.021px;" class="animable" id="elqq37xi2h12"></path></g><g id="el3qhmwa28sto"><path d="M374,150.18a.88.88,0,1,1-.57-1.11A.88.88,0,0,1,374,150.18Z" style="fill: rgb(255, 255, 255); opacity: 0.5; transform-origin: 373.163px 149.908px;" class="animable" id="ellivphlt6az"></path></g><g id="elf01d3yjt01h"><path d="M375.84,144.41a.88.88,0,0,1-1.11.57.88.88,0,0,1,.53-1.68A.89.89,0,0,1,375.84,144.41Z" style="fill: rgb(255, 255, 255); opacity: 0.5; transform-origin: 374.998px 144.141px;" class="animable" id="el7mq3sc3lq7g"></path></g><g id="elr9m46xhrf3"><path d="M372.05,146.38a.88.88,0,0,1-1.11.58.9.9,0,0,1-.58-1.11.89.89,0,0,1,1.69.53Z" style="fill: rgb(255, 255, 255); opacity: 0.5; transform-origin: 371.196px 146.156px;" class="animable" id="elnzzbwsgciv"></path></g><g id="elcoyvyb3zg94"><path d="M371.14,149.27a.88.88,0,0,1-1.11.57.88.88,0,0,1,.53-1.68A.89.89,0,0,1,371.14,149.27Z" style="fill: rgb(255, 255, 255); opacity: 0.5; transform-origin: 370.297px 149.001px;" class="animable" id="elpm46x0pw1"></path></g><g id="elah5futypqtp"><path d="M373,143.5a.88.88,0,1,1-.57-1.11A.89.89,0,0,1,373,143.5Z" style="fill: rgb(255, 255, 255); opacity: 0.5; transform-origin: 372.162px 143.229px;" class="animable" id="ellq6xnonpz5"></path></g><path d="M386.23,138.52l-.81,2.56a3.09,3.09,0,0,0,2,3.85l2.56.81Z" style="fill: rgb(255, 255, 255); transform-origin: 387.631px 142.13px;" id="el6g2dgrmcrvb" class="animable"></path><g id="eli33lwue2yb"><circle cx="172.99" cy="85.31" r="20.58" style="fill: #158668; transform-origin: 172.99px 85.31px; transform: rotate(-22.5deg);" class="animable" id="elwqiltp6z1qp"></circle></g><g id="elm2zwia5r6m"><g style="opacity: 0.4; transform-origin: 173px 85.31px;" class="animable" id="elz0cmecov6i"><path d="M173,71.62a13.69,13.69,0,1,0,13.69,13.69A13.68,13.68,0,0,0,173,71.62Zm0,24.1A10.42,10.42,0,1,1,183.4,85.31,10.41,10.41,0,0,1,173,95.72Z" style="fill: rgb(255, 255, 255); transform-origin: 173px 85.31px;" id="el3nr8ljfryg5" class="animable"></path></g></g><g id="el4qt57gu6kp"><g style="opacity: 0.4; transform-origin: 173px 85.34px;" class="animable" id="eld22jz53kr9g"><path d="M173,74a11.34,11.34,0,1,0,11.34,11.34A11.34,11.34,0,0,0,173,74Zm0,21.75A10.42,10.42,0,1,1,183.4,85.31,10.41,10.41,0,0,1,173,95.72Z" style="fill: rgb(255, 255, 255); transform-origin: 173px 85.34px;" id="elsf4mq3k99wl" class="animable"></path></g></g><g id="el1f2hmiq3hzi"><circle cx="366.6" cy="231.56" r="20.58" style="fill: #158668; transform-origin: 366.6px 231.56px; transform: rotate(-80.59deg);" class="animable" id="elpuyzudl7m6g"></circle></g><g id="eltcmbpdbsgo"><rect x="353.74" y="225.82" width="25.72" height="11.5" rx="1.58" style="fill: rgb(255, 255, 255); opacity: 0.7; transform-origin: 366.6px 231.57px; transform: rotate(54.41deg);" class="animable" id="els0g4pm8qeo"></rect></g><path d="M369.68,231.29a1.57,1.57,0,1,1,.36-2.19A1.58,1.58,0,0,1,369.68,231.29Z" style="fill: rgb(255, 255, 255); transform-origin: 368.762px 230.015px;" id="el178kke8jrpj" class="animable"></path><path d="M365.35,234.39a1.57,1.57,0,1,1,.36-2.19A1.56,1.56,0,0,1,365.35,234.39Z" style="fill: rgb(255, 255, 255); transform-origin: 364.436px 233.115px;" id="elxgp1kvj7wzb" class="animable"></path><path d="M372.39,235.08a1.57,1.57,0,1,1,.36-2.19A1.57,1.57,0,0,1,372.39,235.08Z" style="fill: rgb(255, 255, 255); transform-origin: 371.474px 233.805px;" id="ellcrnf3wxywb" class="animable"></path><path d="M368.06,238.17a1.56,1.56,0,1,1,.36-2.18A1.56,1.56,0,0,1,368.06,238.17Z" style="fill: rgb(255, 255, 255); transform-origin: 367.153px 236.901px;" id="elvznoqbajn4l" class="animable"></path><path d="M375.1,238.86a1.57,1.57,0,1,1,.36-2.18A1.58,1.58,0,0,1,375.1,238.86Z" style="fill: rgb(255, 255, 255); transform-origin: 374.177px 237.588px;" id="elfe7lxd037z" class="animable"></path><path d="M370.77,242a1.57,1.57,0,1,1,.36-2.19A1.57,1.57,0,0,1,370.77,242Z" style="fill: rgb(255, 255, 255); transform-origin: 369.854px 240.725px;" id="elyqj98j1gpq" class="animable"></path><path d="M367,227.5a1.56,1.56,0,1,1,.36-2.18A1.57,1.57,0,0,1,367,227.5Z" style="fill: rgb(255, 255, 255); transform-origin: 366.091px 226.231px;" id="elcchgvl40hzt" class="animable"></path><path d="M362.64,230.6a1.57,1.57,0,1,1,.36-2.18A1.55,1.55,0,0,1,362.64,230.6Z" style="fill: rgb(255, 255, 255); transform-origin: 361.723px 229.328px;" id="elmh89bmgkrfh" class="animable"></path><path d="M364.26,223.72a1.57,1.57,0,1,1,.36-2.19A1.58,1.58,0,0,1,364.26,223.72Z" style="fill: rgb(255, 255, 255); transform-origin: 363.342px 222.445px;" id="el8subj2psh6j" class="animable"></path><path d="M359.93,226.81a1.56,1.56,0,1,1,.36-2.18A1.55,1.55,0,0,1,359.93,226.81Z" style="fill: rgb(255, 255, 255); transform-origin: 359.025px 225.541px;" id="el9yca6f63plt" class="animable"></path><path d="M166.62,258.33a20.58,20.58,0,1,1,2.73-29A20.58,20.58,0,0,1,166.62,258.33Z" style="fill: #158668; transform-origin: 153.509px 242.467px;" id="elht670w99zj" class="animable"></path><g id="elca3zbyxkzn"><path d="M142.07,251.94h0a1.23,1.23,0,0,1,.16-1.72l21-17.36a1.22,1.22,0,0,1,1.72.16h0a1.22,1.22,0,0,1-.16,1.72l-21,17.36A1.22,1.22,0,0,1,142.07,251.94Z" style="fill: rgb(255, 255, 255); opacity: 0.6; transform-origin: 153.512px 242.48px;" class="animable" id="el389u8mt7jac"></path></g><g id="elvk4s2p8xr4k"><path d="M161.49,235.87h0a.82.82,0,0,1,.11-1.16l1.64-1.36a.83.83,0,0,1,1.16.11h0a.84.84,0,0,1-.11,1.16L162.64,236A.81.81,0,0,1,161.49,235.87Z" style="fill: rgb(255, 255, 255); opacity: 0.6; transform-origin: 162.941px 234.673px;" class="animable" id="eleze871ilak"></path></g><g id="elav67s7xccgq"><path d="M143.87,249.75h0a.28.28,0,0,1,0-.39l11.73-9.71a.28.28,0,0,1,.39,0h0a.28.28,0,0,1,0,.39l-11.73,9.71A.28.28,0,0,1,143.87,249.75Z" style="fill: rgb(255, 255, 255); opacity: 0.6; transform-origin: 149.93px 244.7px;" class="animable" id="eln49y4piashf"></path></g><g id="elm2k2gs4sloo"><circle cx="134.64" cy="160.35" r="20.58" style="fill: #158668; transform-origin: 134.64px 160.35px; transform: rotate(-86.46deg);" class="animable" id="elqa093gkdcnq"></circle></g><g id="elgw6kbvjwcpi"><rect x="121.21" y="149.63" width="26.88" height="21.44" rx="2.1" style="fill: rgb(255, 255, 255); opacity: 0.4; transform-origin: 134.65px 160.35px; transform: rotate(-11.49deg);" class="animable" id="elnp8d4wng4n"></rect></g><path d="M120.36,157.56l2.83,13.91a2.11,2.11,0,0,0,2.48,1.64l22.22-4.52a2.1,2.1,0,0,0,1.64-2.47l-2.83-13.91Z" style="fill: rgb(255, 255, 255); transform-origin: 134.965px 162.681px;" id="elrfcua0vf97" class="animable"></path><g id="elpk19gat575"><rect x="135.66" y="156.54" width="3.35" height="2.75" style="fill: #158668; opacity: 0.2; transform-origin: 137.335px 157.915px; transform: rotate(-11.49deg);" class="animable" id="el9b56jvonpvk"></rect></g><g id="elebzu263r7u"><rect x="136.48" y="160.58" width="3.35" height="2.75" style="fill: #158668; opacity: 0.2; transform-origin: 138.155px 161.955px; transform: rotate(-11.49deg);" class="animable" id="elepll8dh4svm"></rect></g><g id="eloziyc8max4"><rect x="141.78" y="155.3" width="3.35" height="2.75" style="fill: #158668; opacity: 0.2; transform-origin: 143.455px 156.675px; transform: rotate(-11.49deg);" class="animable" id="elchnwz5mwf9"></rect></g><g id="elyhw4qh3ekjc"><rect x="142.6" y="159.34" width="3.35" height="2.75" style="fill: #158668; opacity: 0.2; transform-origin: 144.275px 160.715px; transform: rotate(-11.49deg);" class="animable" id="eldrwp5ameibw"></rect></g><g id="elxmawo2gzdp"><rect x="129.54" y="157.78" width="3.35" height="2.75" style="fill: #158668; opacity: 0.2; transform-origin: 131.215px 159.155px; transform: rotate(-11.49deg);" class="animable" id="elsshygz8k7t"></rect></g><g id="el5ul9o0euref"><rect x="130.36" y="161.83" width="3.35" height="2.75" style="fill: #158668; opacity: 0.2; transform-origin: 132.035px 163.205px; transform: rotate(-11.49deg);" class="animable" id="elld8b1vsoeup"></rect></g><g id="eltsxprb4upp8"><rect x="123.42" y="159.03" width="3.35" height="2.75" style="fill: #158668; opacity: 0.2; transform-origin: 125.095px 160.405px; transform: rotate(-11.49deg);" class="animable" id="elqu0xuhyowyh"></rect></g><g id="eli3dqn04e4m"><rect x="124.24" y="163.07" width="3.35" height="2.75" style="fill: #158668; opacity: 0.2; transform-origin: 125.915px 164.445px; transform: rotate(-11.49deg);" class="animable" id="el1vk8l3j9an8"></rect></g><g id="elcftwtdc241f"><rect x="137.3" y="164.62" width="3.35" height="2.75" style="fill: #158668; opacity: 0.2; transform-origin: 138.975px 165.995px; transform: rotate(-11.49deg);" class="animable" id="elylao51ndqli"></rect></g><g id="elcjwogu3mczl"><rect x="143.43" y="163.38" width="3.35" height="2.75" style="fill: #158668; opacity: 0.2; transform-origin: 145.105px 164.755px; transform: rotate(-11.49deg);" class="animable" id="eleufb3iz5v"></rect></g><g id="elnqvrjdzmoy"><rect x="131.18" y="165.87" width="3.35" height="2.75" style="fill: #158668; opacity: 0.2; transform-origin: 132.855px 167.245px; transform: rotate(-11.49deg);" class="animable" id="ellw2h5cl07ap"></rect></g><g id="elg3ibl5o0kfh"><rect x="125.06" y="167.11" width="3.35" height="2.75" style="fill: #158668; opacity: 0.2; transform-origin: 126.735px 168.485px; transform: rotate(-11.49deg);" class="animable" id="elzrq6bert5qd"></rect></g></g><g id="freepik--Character--inject-166" class="animable" style="transform-origin: 255.133px 269.558px;"><path d="M290.93,126.21c13.24-.74,21,12.21,13.32,20.45s-2.22,12.29.87,13.79c-3.38,9.74-30.44,11.08-36.18,2.86-4.82-6.9,14-15.78,9.46-23.31S280.63,126,290.93,126.21Z" style="fill: rgb(38, 50, 56); transform-origin: 287.717px 147.443px;" id="elhfxlsqr3rpc" class="animable"></path><path d="M210.9,184.63l1.86,2.09a3.25,3.25,0,0,0,2.78,1.08l4.89-.52a6.09,6.09,0,0,0,4.66-3.07l.59-1.06c-2.84-3.68-8.63-5.57-8.63-5.57l-1.59-.72a2.71,2.71,0,0,0-3.64,1.27l-1.47,3.13A3.12,3.12,0,0,0,210.9,184.63Z" style="fill: rgb(255, 181, 115); transform-origin: 217.881px 182.201px;" id="elkbzmakuq8u" class="animable"></path><path d="M273.44,184.15c-1.07,1.2-2,2.24-3.07,3.33s-2.05,2.12-3.09,3.17c-2.09,2.09-4.2,4.16-6.4,6.16a93.73,93.73,0,0,1-14.55,11.25l-.05,0a4,4,0,0,1-.4.22,10.14,10.14,0,0,1-4.68,1,12.36,12.36,0,0,1-3.57-.69,19.49,19.49,0,0,1-4.67-2.43,45,45,0,0,1-6.35-5.51c-1.86-1.88-3.57-3.8-5.2-5.76s-3.19-3.87-4.79-6l9.9-7.05c1.24,1.74,2.69,3.65,4.12,5.38s3,3.43,4.51,5a33.12,33.12,0,0,0,4.64,3.9,7.79,7.79,0,0,0,1.74.9c.15.05.18,0,0,0a2.37,2.37,0,0,0-1.17.26l-.45.24a62.3,62.3,0,0,0,6.12-4.6c2-1.7,4-3.55,5.89-5.47s3.79-3.91,5.61-5.95c.9-1,1.8-2.06,2.68-3.11s1.77-2.13,2.53-3.1Z" style="fill: #158668; transform-origin: 245.03px 192.287px;" id="el5gpiaj3ck87" class="animable"></path><g id="elgz81lr8wszj"><path d="M273.44,184.15c-1.07,1.2-2,2.24-3.07,3.33s-2.05,2.12-3.09,3.17c-2.09,2.09-4.2,4.16-6.4,6.16a93.73,93.73,0,0,1-14.55,11.25l-.05,0a4,4,0,0,1-.4.22,10.14,10.14,0,0,1-4.68,1,12.36,12.36,0,0,1-3.57-.69,19.49,19.49,0,0,1-4.67-2.43,45,45,0,0,1-6.35-5.51c-1.86-1.88-3.57-3.8-5.2-5.76s-3.19-3.87-4.79-6l9.9-7.05c1.24,1.74,2.69,3.65,4.12,5.38s3,3.43,4.51,5a33.12,33.12,0,0,0,4.64,3.9,7.79,7.79,0,0,0,1.74.9c.15.05.18,0,0,0a2.37,2.37,0,0,0-1.17.26l-.45.24a62.3,62.3,0,0,0,6.12-4.6c2-1.7,4-3.55,5.89-5.47s3.79-3.91,5.61-5.95c.9-1,1.8-2.06,2.68-3.11s1.77-2.13,2.53-3.1Z" style="fill: rgb(255, 255, 255); opacity: 0.7; transform-origin: 245.03px 192.287px;" class="animable" id="el4lyk1iyqu5"></path></g><path d="M297.14,416.23c7,0,6.46-.11,10.37-.24,3.35-.12,4.14.3,6.82.24,2.25-.05,2.22-2.2,1.6-4.67-.32-1.24-.81-2.76-1.24-4.77H304.13a10.86,10.86,0,0,1-8.35,5.32C292,412.61,294.37,416.23,297.14,416.23Z" style="fill: #158668; transform-origin: 305.055px 411.513px;" id="el0g8y0usuw7i" class="animable"></path><path d="M244.73,416.23c6.83,0,9.13-.45,13-.58,3.3-.12,3.81.58,7.15.58,2.21,0,2.63-2.49,1.91-4.36a28.7,28.7,0,0,1-1.91-5.08h-9.43c-1.84,3-6.57,5.2-11.77,5.57C239.93,412.63,242,416.23,244.73,416.23Z" style="fill: #158668; transform-origin: 254.377px 411.51px;" id="elt4bkavdrhzj" class="animable"></path><path d="M261.43,230s-3.66,49.16-2.21,80.38c-1.56,29.31-3.8,96.43-3.8,96.43.16,1.5,8.05.9,9.43,0,0,0,17-48.89,12.7-96.43C296.23,260.78,294.14,230,294.14,230Z" style="fill: rgb(38, 50, 56); transform-origin: 274.815px 318.862px;" id="el5vm3wgzc67f" class="animable"></path><path d="M271.24,230s14.51,55.49,20.27,82.74c6.06,28.61,14.24,75.06,12.62,94.07,1.6.95,7.33,1,10.56,0,0,0,12.47-65.26-3.26-92.81,5.5-67.79-12.47-84-12.47-84Z" style="fill: rgb(38, 50, 56); transform-origin: 295.31px 318.771px;" id="el6epuelucj55" class="animable"></path><path d="M303.44,402.83a28.59,28.59,0,0,1-.47,3.91.78.78,0,0,0,.65,1c3.85.62,9.47-.28,11.25-.6a.82.82,0,0,0,.67-.67l.68-3.65a.79.79,0,0,0-.8-.94l-11.17.21A.83.83,0,0,0,303.44,402.83Z" style="fill: rgb(38, 50, 56); transform-origin: 309.585px 404.916px;" id="elkdvpumskpgm" class="animable"></path><g id="el4zesz2bfpb"><path d="M303.44,402.83a28.59,28.59,0,0,1-.47,3.91.78.78,0,0,0,.65,1c3.85.62,9.47-.28,11.25-.6a.82.82,0,0,0,.67-.67l.68-3.65a.79.79,0,0,0-.8-.94l-11.17.21A.83.83,0,0,0,303.44,402.83Z" style="fill: rgb(255, 255, 255); opacity: 0.1; transform-origin: 309.585px 404.916px;" class="animable" id="elz5nwvw7t3x"></path></g><path d="M254.54,402.66c-.08,1-.22,2.83-.38,4.17a.81.81,0,0,0,.7.9,56,56,0,0,0,10.41-.12A.81.81,0,0,0,266,407l.87-3.65a.82.82,0,0,0-.76-1l-10.71-.42A.79.79,0,0,0,254.54,402.66Z" style="fill: rgb(38, 50, 56); transform-origin: 260.522px 404.921px;" id="el9oo46aktt5d" class="animable"></path><g id="eleabz3d3hxy8"><path d="M254.54,402.66c-.08,1-.22,2.83-.38,4.17a.81.81,0,0,0,.7.9,56,56,0,0,0,10.41-.12A.81.81,0,0,0,266,407l.87-3.65a.82.82,0,0,0-.76-1l-10.71-.42A.79.79,0,0,0,254.54,402.66Z" style="fill: rgb(255, 255, 255); opacity: 0.1; transform-origin: 260.522px 404.921px;" class="animable" id="el2nib5whx7ks"></path></g><path d="M259.31,185.79a167.31,167.31,0,0,0,.24,17.17c.29,7.46.8,14.79,1.88,27H299c-.75-10.58.48-22.62,7.22-46.41a8.76,8.76,0,0,0-7.49-11.38c-1.49-.15-3.06-.27-4.68-.35a118.08,118.08,0,0,0-17,0c-1.86.17-3.77.4-5.61.65A14.12,14.12,0,0,0,259.31,185.79Z" style="fill: rgb(255, 255, 255); transform-origin: 282.914px 200.737px;" id="elusgfnq3bdph" class="animable"></path><path d="M292.81,152.65c-1.48,5.48-3.3,15.53.26,19.19,0,0-5.19-.78-16.22,6-3.19-4.58-.82-6-.82-6,6.22-1.46,6.4-6,5.66-10.26Z" style="fill: rgb(255, 181, 115); transform-origin: 284.127px 165.245px;" id="elbkot2kqbzcb" class="animable"></path><path d="M279.17,176.5c2.07,1.38,3,6.74,3,6.74s13.72-5.19,13.22-11.25a35.16,35.16,0,0,1-3.19-2S281.29,174.41,279.17,176.5Z" style="fill: #158668; transform-origin: 287.287px 176.615px;" id="elmyz38vr39an" class="animable"></path><path d="M275.72,175.92a23.5,23.5,0,0,0-2.27,6c-5.51-4.55.9-10.07.9-10.07a4.65,4.65,0,0,1,3.28-.47A3.88,3.88,0,0,0,275.72,175.92Z" style="fill: #158668; transform-origin: 274.422px 176.593px;" id="el75tm0pg9944" class="animable"></path><g id="el1s58opa4uru"><path d="M288.28,156.29l-6.59,5.29a17.36,17.36,0,0,1,.3,3c2.36-.34,5.76-2.9,6.19-5.34A8.29,8.29,0,0,0,288.28,156.29Z" style="opacity: 0.2; transform-origin: 285.029px 160.435px;" class="animable" id="el7fru6mally"></path></g><path d="M297.49,141.65c-1.66,8.85-2.18,12.62-7.23,16.87-7.6,6.39-18,3-19-6-.89-8.12,2-21.24,11.1-24.16A11.53,11.53,0,0,1,297.49,141.65Z" style="fill: rgb(255, 181, 115); transform-origin: 284.427px 144.755px;" id="elccu8x1tgc6e" class="animable"></path><path d="M291.09,130.15c-2.69,7.16,3.07,11.42,4.35,17.61C302.11,143.33,302.58,124.81,291.09,130.15Z" style="fill: rgb(38, 50, 56); transform-origin: 295.268px 138.476px;" id="el4m5ss1ksckd" class="animable"></path><path d="M292.44,142.12a1.58,1.58,0,0,1-.71-.17A1.53,1.53,0,0,1,291,141a1.57,1.57,0,0,1,.09-1.2,1.59,1.59,0,0,1,.91-.78l4.68-1.52a1.57,1.57,0,1,1,1,3h0L292.92,142A1.61,1.61,0,0,1,292.44,142.12Zm4.68-4.16a1,1,0,0,0-.33.06l-4.68,1.52a1.07,1.07,0,0,0-.69,1.34,1.08,1.08,0,0,0,.53.62,1.07,1.07,0,0,0,.82.07l4.68-1.53a1.06,1.06,0,0,0,.68-1.34,1,1,0,0,0-.53-.62A1,1,0,0,0,297.12,138Zm.41,2.32Z" style="fill: rgb(255, 255, 255); transform-origin: 294.842px 139.769px;" id="elpfa2n5wtfdc" class="animable"></path><path d="M283.47,143.12c-.11.75-.58,1.33-1.06,1.29s-.78-.67-.68-1.42.59-1.33,1.07-1.29S283.58,142.37,283.47,143.12Z" style="fill: rgb(38, 50, 56); transform-origin: 282.602px 143.055px;" id="el5zoz8g4nba3" class="animable"></path><path d="M274.43,142.59c-.11.75-.59,1.33-1.07,1.29s-.78-.67-.67-1.42.58-1.33,1.06-1.29S274.53,141.84,274.43,142.59Z" style="fill: rgb(38, 50, 56); transform-origin: 273.558px 142.525px;" id="elji9ijanxprc" class="animable"></path><path d="M274,141.22l-1.69-.64S273,142.05,274,141.22Z" style="fill: rgb(38, 50, 56); transform-origin: 273.155px 141.027px;" id="elj2p26zl4yk" class="animable"></path><path d="M276.77,144a22.25,22.25,0,0,1-3.31,4.59,3,3,0,0,0,2.55.69Z" style="fill: rgb(237, 137, 62); transform-origin: 275.115px 146.667px;" id="elo42clsy0l8q" class="animable"></path><path d="M279.83,152.36a7.37,7.37,0,0,1-1.25,0,.2.2,0,0,1-.18-.24.24.24,0,0,1,.25-.2,6.28,6.28,0,0,0,5.07-2,.21.21,0,0,1,.31,0,.22.22,0,0,1,0,.31A6.66,6.66,0,0,1,279.83,152.36Z" style="fill: rgb(38, 50, 56); transform-origin: 281.245px 151.119px;" id="elvitokco7n6" class="animable"></path><path d="M298.49,149.17a6.17,6.17,0,0,1-4.21,2.7c-2.12.24-2.66-2.23-1.63-4.46.93-2,3.14-4.55,5.06-3.75S299.82,147.27,298.49,149.17Z" style="fill: rgb(255, 181, 115); transform-origin: 295.745px 147.698px;" id="elvse1ipm1c3" class="animable"></path><path d="M297.39,152.23a2.16,2.16,0,1,1-2.16-2.16A2.16,2.16,0,0,1,297.39,152.23Z" style="fill: rgb(255, 255, 255); transform-origin: 295.23px 152.23px;" id="eltukypqo810h" class="animable"></path><path d="M286.26,138.77a.41.41,0,0,1-.3-.14,3.27,3.27,0,0,0-2.87-1.1.41.41,0,0,1-.49-.34.48.48,0,0,1,.38-.52,4,4,0,0,1,3.64,1.35.44.44,0,0,1-.05.62A.53.53,0,0,1,286.26,138.77Z" style="fill: rgb(38, 50, 56); transform-origin: 284.661px 137.697px;" id="ellk8qe4ulyx" class="animable"></path><path d="M271.89,138.17a.43.43,0,0,1-.31-.08.44.44,0,0,1-.06-.62,4.66,4.66,0,0,1,3.62-1.92.4.4,0,0,1,.38.46.47.47,0,0,1-.48.42,3.73,3.73,0,0,0-2.85,1.56A.5.5,0,0,1,271.89,138.17Z" style="fill: rgb(38, 50, 56); transform-origin: 273.472px 136.862px;" id="elnc14a1ynhc" class="animable"></path><path d="M283,141.76l-1.69-.65S282,142.58,283,141.76Z" style="fill: rgb(38, 50, 56); transform-origin: 282.155px 141.559px;" id="el2lo25jafc98" class="animable"></path><path d="M295.82,170c-4.17,2.86-9.75,33.62-11.35,79.38a600,600,0,0,0,2.83,82.86s18.27-20.08,29.68-26c.22-42.7-8.87-71.87-7.82-82.65s7-40.59,2.43-46.19S295.82,170,295.82,170Z" style="fill: #158668; transform-origin: 300.543px 251.12px;" id="el7w5no7m5o" class="animable"></path><g id="elthhazqfpte8"><path d="M295.82,170c-4.17,2.86-9.75,33.62-11.35,79.38a600,600,0,0,0,2.83,82.86s18.27-20.08,29.68-26c.22-42.7-8.87-71.87-7.82-82.65s7-40.59,2.43-46.19S295.82,170,295.82,170Z" style="fill: rgb(255, 255, 255); opacity: 0.8; transform-origin: 300.543px 251.12px;" class="animable" id="el8frjuccwg1q"></path></g><path d="M274.68,171.53c-4.86,7.21-15.61,97-5.47,160.67-8-4.44-13.79-16.7-13.79-16.7s-.79-55.42,3-85.52C257.64,194.64,253.44,170.7,274.68,171.53Z" style="fill: #158668; transform-origin: 265.016px 251.855px;" id="elcoadb5710te" class="animable"></path><g id="el8q9kb9kzak4"><path d="M274.68,171.53c-4.86,7.21-15.61,97-5.47,160.67-8-4.44-13.79-16.7-13.79-16.7s-.79-55.42,3-85.52C257.64,194.64,253.44,170.7,274.68,171.53Z" style="fill: rgb(255, 255, 255); opacity: 0.8; transform-origin: 265.016px 251.855px;" class="animable" id="el7ukd30d597m"></path></g><path d="M289.09,230.41a162.59,162.59,0,0,1-6.83-14.78c-3.08-7.78-5.54-17-5.54-17s-23.32-.88-27.66,1.75c2.54,9.89,13.56,33.75,13.56,33.75S280.25,233.82,289.09,230.41Z" style="fill: rgb(224, 224, 224); transform-origin: 269.075px 216.309px;" id="elk3z6fwitva" class="animable"></path><path d="M265.12,235.68l21.2-.64c2.13-.06,3.23-1.62,2.43-3.46l-13.37-30.81a6,6,0,0,0-5.33-3.23l-21.2.64c-2.13.06-3.22,1.62-2.42,3.46l13.37,30.81A6,6,0,0,0,265.12,235.68Z" style="fill: #158668; transform-origin: 267.589px 216.61px;" id="elm7zdle4ab7k" class="animable"></path><path d="M264,236.93a6.28,6.28,0,0,1-5.42-3.38L245.2,202.74a2.66,2.66,0,0,1,.08-2.55,3,3,0,0,1,2.57-1.26l21.19-.64a6.28,6.28,0,0,1,5.57,3.38L288,232.48a2.71,2.71,0,0,1-.08,2.56,3,3,0,0,1-2.57,1.25l-21.2.64H264Zm.13-.5v0l21.2-.64a2.55,2.55,0,0,0,2.15-1,2.19,2.19,0,0,0,0-2.09l-13.37-30.81a5.68,5.68,0,0,0-5.09-3.08l-21.2.64a2.57,2.57,0,0,0-2.16,1,2.2,2.2,0,0,0,0,2.09L259,233.35A5.71,5.71,0,0,0,264.12,236.43Z" style="fill: rgb(255, 255, 255); transform-origin: 266.598px 217.61px;" id="elxgvolu9u6c" class="animable"></path><path d="M276.56,212.63l2.51-1.23a3.28,3.28,0,0,1,3,.06l4.32,2.35a6,6,0,0,1,3.13,4.61l.15,1.21c-4,2.32-10.1,1.86-10.1,1.86l-1.75.06a2.71,2.71,0,0,1-2.88-2.57l-.16-3.45A3.1,3.1,0,0,1,276.56,212.63Z" style="fill: rgb(255, 181, 115); transform-origin: 282.224px 216.311px;" id="elsfsan4r7ly" class="animable"></path><g id="elk7jxmbgh1o"><path d="M303.77,189.09c-.84,13.74-.89,26.32,2.78,28.44C310.85,213.3,310.54,207.38,303.77,189.09Z" style="fill: #158668; opacity: 0.2; transform-origin: 306.347px 203.31px;" class="animable" id="eleipixyrlgei"></path></g><path d="M313,179.39c.54,1.54,1,2.91,1.41,4.36s.86,2.86,1.26,4.3c.8,2.88,1.57,5.77,2.22,8.71a85.09,85.09,0,0,1,2.38,18.55,3.39,3.39,0,0,1,0,.45v.06a9.25,9.25,0,0,1-2.16,5.12,10.78,10.78,0,0,1-3.31,2.57,18,18,0,0,1-5.25,1.66,45.7,45.7,0,0,1-8.47.5c-2.67,0-5.25-.21-7.81-.45s-5.05-.51-7.72-.91l2-12c2.16.36,4.56.69,6.84.92s4.6.35,6.82.37a33.92,33.92,0,0,0,6.15-.45,6.85,6.85,0,0,0,1.72-.53c.07,0-.08,0-.42.36a3.29,3.29,0,0,0-.76,1.79l0,.52a57.19,57.19,0,0,0-.83-7.57c-.45-2.6-1.09-5.24-1.79-7.86s-1.52-5.25-2.41-7.85c-.45-1.3-.91-2.6-1.4-3.88s-1-2.61-1.46-3.75Z" style="fill: #158668; transform-origin: 302.914px 202.543px;" id="elnv57mcmlqp" class="animable"></path><g id="el987rhn1mr9c"><path d="M313,179.39c.54,1.54,1,2.91,1.41,4.36s.86,2.86,1.26,4.3c.8,2.88,1.57,5.77,2.22,8.71a85.09,85.09,0,0,1,2.38,18.55,3.39,3.39,0,0,1,0,.45v.06a9.25,9.25,0,0,1-2.16,5.12,10.78,10.78,0,0,1-3.31,2.57,18,18,0,0,1-5.25,1.66,45.7,45.7,0,0,1-8.47.5c-2.67,0-5.25-.21-7.81-.45s-5.05-.51-7.72-.91l2-12c2.16.36,4.56.69,6.84.92s4.6.35,6.82.37a33.92,33.92,0,0,0,6.15-.45,6.85,6.85,0,0,0,1.72-.53c.07,0-.08,0-.42.36a3.29,3.29,0,0,0-.76,1.79l0,.52a57.19,57.19,0,0,0-.83-7.57c-.45-2.6-1.09-5.24-1.79-7.86s-1.52-5.25-2.41-7.85c-.45-1.3-.91-2.6-1.4-3.88s-1-2.61-1.46-3.75Z" style="fill: rgb(255, 255, 255); opacity: 0.8; transform-origin: 302.914px 202.543px;" class="animable" id="el9jj4d44w0vf"></path></g><path d="M293.79,132.71c-4.51,4.51-24.74-2.8-23.94,4.7-3.12-7,1.79-14.53,14.26-14.53C299.37,122.88,296.53,130,293.79,132.71Z" style="fill: rgb(38, 50, 56); transform-origin: 282.45px 130.145px;" id="el6vz1n0i2l5r" class="animable"></path><path d="M239.72,155.76l-1-.3a23.8,23.8,0,0,0,1.12-6.38l1,0A25.35,25.35,0,0,1,239.72,155.76Z" style="fill: #158668; transform-origin: 239.78px 152.42px;" id="ellnkob2ok0gd" class="animable"></path><path d="M239.36,143a24.26,24.26,0,0,0-10.6-15.42l.55-.84a25.26,25.26,0,0,1,11,16.05Z" style="fill: #158668; transform-origin: 234.535px 134.87px;" id="elu579daztt1" class="animable"></path><path d="M215.42,173.54a25.45,25.45,0,0,1-21.32-39.32l.83.54a24.46,24.46,0,0,0,20.49,37.78Z" style="fill: #158668; transform-origin: 202.704px 153.88px;" id="elifvz6ml1iy" class="animable"></path><g id="elz7eoxyi7srh"><circle cx="215.44" cy="148.09" r="22.1" style="fill: #158668; transform-origin: 215.44px 148.09px; transform: rotate(-1.52deg);" class="animable" id="elkq4gdgp6wfa"></circle></g><g id="elpwm5dq0w3nj"><path d="M212.42,161.51l-.29-.19c2.58-6.93,8.81-11.49,12.5-17.7,1.19-2,.39-4.73-1.34-6.27l.18-.38a.77.77,0,0,0-.36-1h0a.77.77,0,0,0-1,.37l-.1.2c-1.91-.76-3.91.17-5.07,2.09-3.69,6.21-9.92,10.77-12.5,17.7h0a.74.74,0,0,0-1,.22.73.73,0,0,0,.22,1l8,5.21a.74.74,0,1,0,.81-1.23Z" style="fill: rgb(255, 255, 255); opacity: 0.5; transform-origin: 214.262px 149.416px;" class="animable" id="el9sju90ls5m7"></path></g><path d="M209.84,151a.5.5,0,0,1-.3-.11.49.49,0,0,1-.09-.7c1-1.23,2-2.47,3-3.67a.5.5,0,1,1,.75.66c-1,1.18-2.06,2.41-3,3.63A.53.53,0,0,1,209.84,151Z" style="fill: rgb(255, 255, 255); transform-origin: 211.341px 148.667px;" id="el7h5bppt2yl8" class="animable"></path><path d="M206.08,157.43a.33.33,0,0,1-.17,0,.49.49,0,0,1-.3-.64,21.28,21.28,0,0,1,2.06-4.06.5.5,0,0,1,.85.54,20.21,20.21,0,0,0-2,3.87A.52.52,0,0,1,206.08,157.43Z" style="fill: rgb(255, 255, 255); transform-origin: 207.088px 154.969px;" id="elwo2pzd21b1m" class="animable"></path><path d="M217.88,150a.51.51,0,0,1-.32-.12.49.49,0,0,1-.06-.7c.7-.81,1.36-1.59,2-2.37a.49.49,0,0,1,.7-.07.5.5,0,0,1,.07.7c-.65.79-1.32,1.58-2,2.38A.5.5,0,0,1,217.88,150Z" style="fill: rgb(255, 255, 255); transform-origin: 218.881px 148.312px;" id="elugr45r3wci" class="animable"></path><path d="M221.69,145.34a.52.52,0,0,1-.29-.09.51.51,0,0,1-.11-.7c.52-.73,1-1.42,1.39-2.11a3,3,0,0,0-.9-3.39.5.5,0,1,1,.66-.74,3.93,3.93,0,0,1,1.1,4.65c-.43.71-.9,1.42-1.44,2.18A.51.51,0,0,1,221.69,145.34Z" style="fill: rgb(255, 255, 255); transform-origin: 222.54px 141.738px;" id="elrdvfo1yjna" class="animable"></path></g><g id="freepik--Plant--inject-166" class="animable" style="transform-origin: 174.915px 342.61px;"><path d="M202.94,296.82c.61,5.19,13.59,3.73,22-3.81-5.23,2.61-16.3.83-21,2.22,1.26-2,2.51-3.93,3.73-5.73,1.26,3.55,10.9,1.77,17-4.29-3.75,2.13-11.72,1.44-15.66,2.42,2-2.9,3.94-5.48,5.66-7.69,2.77,1.18,9.32-2.59,12.59-8.54-3.06,3.14-11.71,4.51-13.85,6.76a2.52,2.52,0,0,0,.38,1c-.83,1.06-1.7,2.21-2.61,3.43-.67-3.27-5.8-9.46-6.07-13.61-1.58,7.63,2,15.88,5.32,14.64-1.49,2.05-3.07,4.29-4.68,6.73-1.21-3.63-7.43-9.94-8.14-14.5-1,8.49,3.61,17.16,7.17,16-1.3,2-2.61,4.1-3.92,6.3-2-4.33-11.23-11.24-13-16.91.32,10.78,7.58,20.76,11.86,18.85q-2,3.39-3.86,7.07c-2.71-4.69-13.63-11.61-16.1-17.83,1.32,12,10.25,22.52,14.92,20.18-1.4,2.83-2.74,5.76-4,8.79-3.36-4.37-16.76-9.33-20.75-15.41,3.95,12.24,15.58,21.27,19.83,17.64a127.89,127.89,0,0,0-4.2,12.44c-4.14-4-18.72-7.13-23.75-12.81,5.87,12,19.12,19.57,23.06,15.34A109.27,109.27,0,0,0,182.52,347c-5.41-3.63-22.29-4.16-29-9.47,8.84,12,24.79,17.77,28.64,12.67a86,86,0,0,0,1.45,28.48l1.13-.26a86.46,86.46,0,0,1-.89-32.19c1.76,6.53,19.31,4.58,30.91-5.49-7.78,3.71-24.46.49-30.48,2.89a111.45,111.45,0,0,1,2.88-12.09c1.87,5.41,17,4.25,27.4-4-6.82,2.89-20.78-.33-26.53,1.21,1.27-3.91,2.7-7.7,4.26-11.34,1.34,5.47,16.11,4.68,26.36-3.16-6.51,2.63-19.66-.6-25.28.69,1.44-3.21,3-6.29,4.52-9.23.6,5.71,15.13,4.86,25-3-6.14,2.62-18.74-.22-24,1.16C200.2,301.45,201.57,299.07,202.94,296.82Z" style="fill: #158668; transform-origin: 190.39px 323.83px;" id="elfc62m3a95pi" class="animable"></path><g id="eljyi7oqq3h0g"><path d="M202.94,296.82c.61,5.19,13.59,3.73,22-3.81-5.23,2.61-16.3.83-21,2.22,1.26-2,2.51-3.93,3.73-5.73,1.26,3.55,10.9,1.77,17-4.29-3.75,2.13-11.72,1.44-15.66,2.42,2-2.9,3.94-5.48,5.66-7.69,2.77,1.18,9.32-2.59,12.59-8.54-3.06,3.14-11.71,4.51-13.85,6.76a2.52,2.52,0,0,0,.38,1c-.83,1.06-1.7,2.21-2.61,3.43-.67-3.27-5.8-9.46-6.07-13.61-1.58,7.63,2,15.88,5.32,14.64-1.49,2.05-3.07,4.29-4.68,6.73-1.21-3.63-7.43-9.94-8.14-14.5-1,8.49,3.61,17.16,7.17,16-1.3,2-2.61,4.1-3.92,6.3-2-4.33-11.23-11.24-13-16.91.32,10.78,7.58,20.76,11.86,18.85q-2,3.39-3.86,7.07c-2.71-4.69-13.63-11.61-16.1-17.83,1.32,12,10.25,22.52,14.92,20.18-1.4,2.83-2.74,5.76-4,8.79-3.36-4.37-16.76-9.33-20.75-15.41,3.95,12.24,15.58,21.27,19.83,17.64a127.89,127.89,0,0,0-4.2,12.44c-4.14-4-18.72-7.13-23.75-12.81,5.87,12,19.12,19.57,23.06,15.34A109.27,109.27,0,0,0,182.52,347c-5.41-3.63-22.29-4.16-29-9.47,8.84,12,24.79,17.77,28.64,12.67a86,86,0,0,0,1.45,28.48l1.13-.26a86.46,86.46,0,0,1-.89-32.19c1.76,6.53,19.31,4.58,30.91-5.49-7.78,3.71-24.46.49-30.48,2.89a111.45,111.45,0,0,1,2.88-12.09c1.87,5.41,17,4.25,27.4-4-6.82,2.89-20.78-.33-26.53,1.21,1.27-3.91,2.7-7.7,4.26-11.34,1.34,5.47,16.11,4.68,26.36-3.16-6.51,2.63-19.66-.6-25.28.69,1.44-3.21,3-6.29,4.52-9.23.6,5.71,15.13,4.86,25-3-6.14,2.62-18.74-.22-24,1.16C200.2,301.45,201.57,299.07,202.94,296.82Z" style="opacity: 0.3; transform-origin: 190.39px 323.83px;" class="animable" id="el45guqtjf9i6"></path></g><path d="M172,379l-1.08-.07c2.46-36.61-26.3-67-38.78-78.32l.72-.8C145.45,311.3,174.47,342,172,379Z" style="fill: #158668; transform-origin: 152.144px 339.405px;" id="elfm6thaz69pg" class="animable"></path><path d="M142.52,310.23c0-2.89,4.86-9.41,4.86-13.49C149.47,304.32,146,313,142.52,310.23Z" style="fill: #158668; transform-origin: 145.266px 303.749px;" id="elkp49g6qbg0a" class="animable"></path><path d="M137.14,304.42c-.26-2.56,3.55-8.73,3.22-12.34C142.82,298.63,140.41,306.55,137.14,304.42Z" style="fill: #158668; transform-origin: 139.248px 298.427px;" id="eli36hjng5lkl" class="animable"></path><path d="M147.42,316c.49-3.64,7.84-11,8.59-16.09C157.26,309.81,151.25,320,147.42,316Z" style="fill: #158668; transform-origin: 151.799px 308.401px;" id="elq47vvlp1ewf" class="animable"></path><path d="M152.56,322.79c.88-4.05,9.8-11.62,11.1-17.33C164.18,316.73,156.51,327.7,152.56,322.79Z" style="fill: #158668; transform-origin: 158.123px 314.727px;" id="elw7sl2q6ilz" class="animable"></path><path d="M158.24,330.86c1.77-4,12.62-9.94,15.18-15.57C171.56,327.07,161.29,336.79,158.24,330.86Z" style="fill: #158668; transform-origin: 165.83px 323.971px;" id="el5fdtak99aew" class="animable"></path><path d="M164.26,342.2c2.42-3.88,14.52-8.39,18-13.83C178.58,340.26,166.52,348.78,164.26,342.2Z" style="fill: #158668; transform-origin: 173.26px 336.43px;" id="el33qo3nndduq" class="animable"></path><path d="M168.42,353.32c3.48-3.83,17.87-6.42,22.85-11.77C184.76,354.05,169.6,361.1,168.42,353.32Z" style="fill: #158668; transform-origin: 179.845px 349.063px;" id="el2tx3t2fe3ab" class="animable"></path><path d="M140.78,308.06c-2.69-1.05-10.52,1.22-14.34-.23C132.79,312.47,142.11,312.25,140.78,308.06Z" style="fill: #158668; transform-origin: 133.674px 309.514px;" id="elbbjqe0j47mj" class="animable"></path><path d="M134.75,300.63c-2-1.57-9.29-1.58-12.18-3.76C126.83,302.41,134.84,304.54,134.75,300.63Z" style="fill: #158668; transform-origin: 128.66px 299.749px;" id="el693oiq9fxbh" class="animable"></path><path d="M145.43,313.56c-3.49-1.16-13.29,2.26-18.24.68C135.57,319.71,147.4,318.79,145.43,313.56Z" style="fill: #158668; transform-origin: 136.419px 315.625px;" id="eluiv7rwawell" class="animable"></path><path d="M150.63,320c-4-1.07-14.81,3.43-20.48,2C139.94,327.54,153.2,325.71,150.63,320Z" style="fill: #158668; transform-origin: 140.552px 322.586px;" id="elk6t2hoj4za" class="animable"></path><path d="M156.66,328.29c-4.26-1-15.58,3.95-21.6,2.54C145.53,336.53,159.5,334.32,156.66,328.29Z" style="fill: #158668; transform-origin: 146.047px 331.145px;" id="el8dqqy95llve" class="animable"></path><path d="M162.7,338.9c-4.43-1.16-16.33,3.85-22.6,2.28C150.94,347.31,165.56,345.24,162.7,338.9Z" style="fill: #158668; transform-origin: 151.582px 341.79px;" id="elw9lu0lv0wm" class="animable"></path><path d="M167.28,350.56c-4.94-1.53-18.66,3.52-25.66,1.43C153.56,359.47,170.2,357.88,167.28,350.56Z" style="fill: #158668; transform-origin: 154.619px 353.574px;" id="eltqmzzs1ygy" class="animable"></path><path d="M163.86,416.24h24.41a3,3,0,0,0,3-2.7L196,367.8a3,3,0,0,0-3-3.32H159.16a3,3,0,0,0-3,3.32l4.69,45.74A3,3,0,0,0,163.86,416.24Z" style="fill: #158668; transform-origin: 176.08px 390.36px;" id="el3giz277zsgb" class="animable"></path><g id="elel3xi25b8sl"><path d="M163.86,416.24h24.41a3,3,0,0,0,3-2.7L196,367.8a3,3,0,0,0-3-3.32H159.16a3,3,0,0,0-3,3.32l4.69,45.74A3,3,0,0,0,163.86,416.24Z" style="fill: rgb(255, 255, 255); opacity: 0.6; transform-origin: 176.08px 390.36px;" class="animable" id="eljjtfs6potu"></path></g></g><defs>     <filter id="active" height="200%">         <feMorphology in="SourceAlpha" result="DILATED" operator="dilate" radius="2"></feMorphology>                <feFlood flood-color="#32DFEC" flood-opacity="1" result="PINK"></feFlood>        <feComposite in="PINK" in2="DILATED" operator="in" result="OUTLINE"></feComposite>        <feMerge>            <feMergeNode in="OUTLINE"></feMergeNode>            <feMergeNode in="SourceGraphic"></feMergeNode>        </feMerge>    </filter>    <filter id="hover" height="200%">        <feMorphology in="SourceAlpha" result="DILATED" operator="dilate" radius="2"></feMorphology>                <feFlood flood-color="#ff0000" flood-opacity="0.5" result="PINK"></feFlood>        <feComposite in="PINK" in2="DILATED" operator="in" result="OUTLINE"></feComposite>        <feMerge>            <feMergeNode in="OUTLINE"></feMergeNode>            <feMergeNode in="SourceGraphic"></feMergeNode>        </feMerge>            <feColorMatrix type="matrix" values="0   0   0   0   0                0   1   0   0   0                0   0   0   0   0                0   0   0   1   0 "></feColorMatrix>    </filter></defs></svg>