<svg xmlns="http://www.w3.org/2000/svg" enable-background="new 0 0 50 50" viewBox="0 0 50 50" id="doctors-consultation"><path fill="#99B2DC" d="M32.5047,16.7663l-0.7785-0.4527l0.0221,9.2978c0,0.1242,0.0442,0.2126,0.1159,0.254l0.7785,0.45
							c-0.0718-0.0387-0.116-0.127-0.116-0.2512L32.5047,16.7663z"></path><path fill="#E6EFF9" d="M25.076,29.7826l0.7785,0.4527c-0.1104-0.0663-0.1491-0.2485-0.0773-0.4665l3.1608-11.5863
							c0.0635-0.1932,0.2015-0.3754,0.3534-0.4638l2.4348-1.4051L32.894,15.64c0.1104-0.0635,0.207-0.069,0.2788-0.0276
							l-0.7785-0.4527c-0.0718-0.0414-0.1684-0.0359-0.2788,0.0276l-3.6026,2.0787c-0.1518,0.0883-0.2899,0.2705-0.3533,0.4638
							l-3.1609,11.5863C24.9269,29.5341,24.9656,29.7163,25.076,29.7826z"></path><path fill="#CAD9EF" d="M29.2918,17.7194c-0.1516,0.0875-0.2905,0.2692-0.3535,0.4638l-3.1609,11.5863
										c-0.091,0.2797-0.0057,0.4983,0.1903,0.4906c0.053-0.0022,0.1094-0.0206,0.1658-0.0531
										c0.1463-0.0845,0.287-0.2631,0.3535-0.4658l3.0577-11.265l2.9611-1.7096l0.0209,9.2969
										c0.0007,0.2491,0.1758,0.3509,0.3926,0.2257c0.2168-0.1252,0.3907-0.4284,0.39-0.6775l-0.0222-9.7485
										c-0.0007-0.2471-0.1758-0.3489-0.3926-0.2237L29.2918,17.7194z" enable-background="new"></path><polygon fill="#FEE44B" points="35.861 27.987 26.056 22.289 34.514 17.406 44.318 23.104"></polygon><path fill="#F6D341" d="M35.8603,27.9871c-0.1535,0.0863-0.2974,0.2495-0.3934,0.4413l-0.9354,1.8469
									c-0.1679,0.331-0.1535,0.662,0.0288,0.7675l-9.805-5.6988c-0.1823-0.1055-0.1967-0.4365-0.0288-0.7675
									c0.9128-1.7064,0.9373-2.0557,1.3288-2.2882L35.8603,27.9871z"></path><polygon fill="#D1A62D" points="44.318 23.104 34.514 17.406 34.491 9.375 44.295 15.073"></polygon><path fill="#EBC143" d="M47.3273,12.177c0.105,0.2425-0.0227,0.6582-0.2857,0.9299l-1.7252,1.7751l0.0233,8.221
									c0.0009,0.3238-0.225,0.7186-0.5067,0.8813l-8.7301,5.0403l-0.784,1.5454c-0.4406,0.856-1.2109,0.5448-0.7892-0.2952
									l0.9396-1.8468c0.0946-0.1921,0.2383-0.3526,0.3914-0.441l8.4576-4.883l-0.0228-8.031
									c-0.0007-0.2428,0.1273-0.5318,0.3231-0.7329l2.0463-2.1121C46.8944,11.9897,47.211,11.9122,47.3273,12.177z"></path><path fill="#F6D341" d="M47.2165,12.0442c-0.184-0.1012-0.4027,0.0333-0.5516,0.1823l-2.0483,2.1155
									c-0.1919,0.2015-0.3214,0.4893-0.3214,0.7291l-9.805-5.694c0-0.2446,0.1295-0.5325,0.3214-0.7339l2.0483-2.1107
									c0.1388-0.1495,0.374-0.2848,0.5516-0.1871L47.2165,12.0442z"></path><path fill="#99B2DC" d="M42.8702,22.7653l-0.7785-0.4527l0.0221,9.2978c0,0.1242,0.0442,0.2126,0.1159,0.254l0.7785,0.45
							c-0.0718-0.0387-0.116-0.127-0.116-0.2512L42.8702,22.7653z"></path><path fill="#E6EFF9" d="M35.4415,35.7816l0.7785,0.4527c-0.1104-0.0662-0.1491-0.2485-0.0773-0.4665l3.1608-11.5863
							c0.0635-0.1932,0.2015-0.3754,0.3534-0.4638l2.4348-1.4051l1.1677-0.6736c0.1104-0.0635,0.207-0.069,0.2788-0.0276
							l-0.7785-0.4527c-0.0718-0.0414-0.1684-0.0359-0.2788,0.0276l-3.6026,2.0787c-0.1518,0.0883-0.2899,0.2705-0.3533,0.4638
							l-3.1609,11.5863C35.2924,35.5331,35.3311,35.7153,35.4415,35.7816z"></path><path fill="#CAD9EF" d="M39.6573,23.7184c-0.1516,0.0875-0.2905,0.2692-0.3535,0.4638l-3.1609,11.5863
										c-0.091,0.2797-0.0057,0.4983,0.1903,0.4906c0.053-0.0022,0.1094-0.0206,0.1658-0.0531
										c0.1463-0.0845,0.287-0.2631,0.3535-0.4658l3.0577-11.265l2.9611-1.7096l0.0209,9.2969
										c0.0007,0.2491,0.1758,0.3509,0.3926,0.2257c0.2168-0.1252,0.3907-0.4284,0.39-0.6775l-0.0222-9.7485
										c-0.0007-0.2471-0.1758-0.3489-0.3926-0.2237L39.6573,23.7184z" enable-background="new"></path><path fill="#181618" d="M25.4262,32.7137c0,0,0.5048,0.4975-1.6517,1.1205c-0.7803,0.2254-1.548,1.104-1.2283,1.5246
							c0.3197,0.4207,1.0714,0.9336,2.5859,0.0754c1.5144-0.8582,1.4017-0.7166,1.7382-0.8512
							c0.3365-0.1346,1.3943-0.521,1.2423-1.5789C27.9606,31.9462,26.6045,32.116,25.4262,32.7137z"></path><path fill="#192B55" d="M39.3227,17.7748c-1.7684-5.333-7.2816,0.3491-8.5794,1.7898
							c-0.1991,0.221-0.4209,0.4149-0.6652,0.5844c-0.5631,0.3908-1.1662,0.7352-1.8232,0.9305
							c-2.6726,0.7944-2.2124,4.2809-2.5914,5.3305c-0.4082,1.1304-0.2372,6.3037-0.2372,6.3037
							c0.8478,1.0676,2.6864,0.2904,2.6864,0.2904s0-2.7947,0.5024-3.6425c0.3227-0.5445,0.6453-2.5654,0.8349-3.9417
							c0.1102-0.8004,0.6959-1.4513,1.475-1.6651C39.4941,21.4034,39.3227,17.7748,39.3227,17.7748z"></path><path fill="#181618" d="M28.1331,35.0339c0,0,0.5048,0.4975-1.6517,1.1205c-0.7803,0.2254-1.548,1.104-1.2283,1.5246
							s0.712,0.8472,2.2264-0.011c1.5144-0.8582,1.7611-0.6302,2.0977-0.7648s1.3943-0.521,1.2423-1.5789
							C30.6675,34.2664,29.3114,34.4362,28.1331,35.0339z"></path><path fill="#202F60" d="M42.0295,20.095c-1.7684-5.333-7.2816,0.3491-8.5794,1.7898
							c-0.1991,0.221-0.4209,0.4149-0.6652,0.5844h0c-0.5631,0.3908-1.1662,0.7352-1.8232,0.9305
							c-2.6727,0.7944-2.2124,4.2808-2.5915,5.3305c-0.4082,1.1304-0.2371,6.3037-0.2371,6.3037
							c0.8478,1.0676,2.6864,0.2904,2.6864,0.2904s0-2.7947,0.5024-3.6425c0.3226-0.5445,0.6453-2.5654,0.8349-3.9417
							c0.1103-0.8004,0.6825-1.5081,1.475-1.6651C42.8036,24.2578,42.0295,20.095,42.0295,20.095z"></path><path fill="#99B2DC" d="M26.3456,14.088c0,0-0.6915,0.533,0.1817,1.5224l0.9041-0.4613l-0.3395-0.8385L26.3456,14.088z"></path><path fill="#F8D5B4" d="M27.3787,14.3383c-0.3826-0.2403-1.1215,0.0358-1.3911-0.0455
						c-0.2802-0.0554-1.1595-0.18-1.5199-0.3566c-0.3624-0.1501-2.0071,1.5003-1.8271,1.8417
						c0.2583,0.489,0.4084,0.251,0.7984-0.112c0.3742-0.3908,1.1145-0.3116,1.2484,0.0532
						c0.0423,0.1539-0.0402,0.3168-0.1791,0.3957c0,0-0.2964,0.2078-0.7388,0.1853c-0.4431-0.0137-0.4598,0.8465,0.0867,0.6544
						c0.9869-0.3624,1.0788-0.6649,2.2021-1.2802c0.7307-0.4098,1.3449-0.0554,1.3449-0.0554S27.7606,14.5875,27.3787,14.3383z"></path><path fill="#D4E0F2" d="M35.8179,7.9857c-0.0599-0.4355-1.3779-2.0985-2.858-0.0141
						c-1.8856,2.6554-0.0444,5.8708-1.3946,5.8666c-0.8917-0.0027-2.7016,0.028-5.2198,0.2499
						c0.366,0.6183,0.396,0.8583,0.1817,1.5224c0,0,6.8824,1.4891,7.3872-0.0457C34.4193,14.0299,35.9273,8.7807,35.8179,7.9857z"></path><path fill="#F9C895" d="M36.4445,6.4148c0,0-1.4158,0.9426-1.4831,2.1758s5.0956,0.5496,4.8681-2.0697
										c0,0,0.0927-0.6131,0.2004-1.3861S36.4445,6.4148,36.4445,6.4148z"></path><path fill="#F2F4F3" d="M39.8296,6.5209c0.0005,0.0042,0.0014,0.0077,0.0018,0.012
											C39.8304,6.5253,39.8296,6.5209,39.8296,6.5209z"></path><path fill="#EEF3FA" d="M42.0296,20.095c-0.1492-2.424-0.0241-5.0526,0.6391-7.7291
												c0.096-0.3871,0.5681-0.5614,0.6726-0.9464c0.2469-0.9092,0.289-2.4677-2.0674-2.9554c0,0-1.2276-0.0582-1.4426-1.9313
												c0.0149,0.1101,0.0767,0.9661-1.5579,1.096c0,0-0.9818-0.0645-2.0039,1.052c0,0,0.3569-1.146,0.0169-2.2808
												c0,0-0.1409-1.0186-2.0619,0.4409c-3.2737,2.4873-0.5535,6.2627-2.2275,11.4411l3.2936,2.151
												C38.0299,20.7313,42.0296,20.095,42.0296,20.095z"></path><path fill="#D2DFF2" d="M37.4117,13.0317c1.2366-1.1588,0.4399-2.4639,2.0547-2.8323l-0.587-0.8633l1.2975,0.1375
												c0,0,0.2833-0.6326,0.4284-1.2988c-0.2381-0.1861-0.4844-0.492-0.6413-0.9995
												c-0.3306,0.4624-0.9076,1.1521-1.6699,1.5363c-1.2017,0.6057-2.3351,3.3719-2.2475,4.3473
												c0,0-2.1204-4.7046,0.2815-6.4773c-0.0144-0.0606-0.0233-0.1207-0.0415-0.1814c0,0,0.0158-0.1638-0.0549-0.3026
												l-0.3186-0.0115c0,0-1.0259,0.519-1.5135,1.1899l0.6531,0.575L34.0842,8.31c0,0,0.4643,3.4281,0.7476,6.152
												c0.2027,1.9479,0.3035,4.3105,0.4589,5.9711c0.2188,0.0289,0.4427,0.0523,0.6745,0.0687
												C35.8183,17.4955,36.3418,14.0343,37.4117,13.0317z"></path><path fill="#F8D5B4" d="M36.2478,2.6149c0,0-0.3458,1.4201-0.2514,3.5494c0.0144,0.3258-0.2281,1.1482,0.209,1.2876
										c0.4371,0.1395,3.4488-0.7223,3.9357-1.7563c0,0,0.5502-0.5299,0.5978-0.843C41.0569,2.7615,39.2523,0.1484,36.2478,2.6149
										z"></path><path fill="#1E1F21" d="M40.8787,3.088c-0.3595-2.4238-2.2929-2.1865-3.6233-1.9406
										c-3.1712,0.5862-1.4291,1.3329-1.1511,1.5324c0.5603,0.4018,2.7768-0.819,2.5002,1.1645
										c-0.035,0.251,0.6708-0.3844,0.5788,1.2325h0.1822c0.026-0.2794,0.1125-0.3783,0.1125-0.3783
										c0.2671-0.432,0.9483-0.7935,0.9731-0.2298C40.4761,5.0323,40.017,5.893,40.017,5.893S41.2382,5.5118,40.8787,3.088z"></path><path fill="#99B2DC" d="M36.5747,18.1581c0,0-0.1877,1.4328,0.6354,1.3199s0.4106-0.9666,0.4106-0.9666L36.5747,18.1581z"></path><path fill="#F8D5B4" d="M37.4453,18.1885c0,0-1.7642-0.0229-2.3735,0.6065c-0.2816,0.2909-1.1282,0.7529-1.0742,0.9615
						c0.054,0.2085,0.7149,1.42,1.0182,1.0721c0.7196-0.8252,0.8732-0.7509,1.2344-0.8815
						c0.3612-0.1305,0.8384-0.3236,1.4993-1.1373L37.4453,18.1885z"></path><path fill="#D4E0F2" d="M43.249,9.7107c-0.189-0.3751-1.8949-1.4706-2.5879,0.8717c-0.4752,1.6062,0.2304,3.6193,0.7207,4.7257
						c0.1971,0.4447-0.0199,0.9562-0.4791,1.1167c-0.8785,0.3071-2.3762,0.867-4.328,1.7332
						c0.5222,0.4456,0.6235,0.6534,0.6353,1.3199c0,0,6.6822-0.7836,6.6636-2.3271C43.855,15.6073,43.594,10.3955,43.249,9.7107z"></path><g><polygon fill="#CAD9EF" points="11.199 23.258 11.223 34.776 12.133 35.305 12.109 23.787"></polygon><polygon fill="#99B2DC" points="12.109 23.787 12.133 35.305 13.05 34.775 13.026 23.257"></polygon></g><path fill="#231D3E" d="M24.4151,33.5244c-0.383-0.7842,0.5289-2.0973-7.7873-3.0274l-3.6644-0.3217l-0.0188,0.0153v5.8223
			c0.5634-0.1443,1.1824-0.3522,1.8668-0.644c5.8309-2.4853,5.897-0.5417,5.3382,0.3824c-0.5588,0.924-1.9344,2.4216-1.8839,4.8432
			c0,0-0.0112,1.8972-1.207,2.717c0,0,1.0178,1.1117,2.7401,0.3132c0,0,2.446-5.0486,2.4824-5.1944
			C22.3178,38.2843,24.798,34.3086,24.4151,33.5244z"></path><path fill="#F6D341" d="M9.1546,35.72l7.2606-4.3034c0.11-0.0628,0.2199-0.0707,0.2906-0.0314l9.0865,5.2396l-1.1701-0.644
			c-0.0785-0.0393-0.1885-0.0314-0.2984,0.0314l-7.2606,4.3113c-0.3063,0.1728-0.589,0.1963-0.7932,0.0786l-7.9085-4.6035
			C8.5656,35.9242,8.8483,35.9007,9.1546,35.72z"></path><g><path fill="#F9C895" d="M17.3557,43.2266c0,0-0.1772,0.5778-0.9738,1.4053l0.9078,0.9993c0,0,0.5285,0.3567,0.687,0.3964
						c0.1585,0.0396,0.806,0.1453,1.1627,0.1057c0.3567-0.0396,0.9645-0.1718,1.0041-0.1718s-0.1253-0.3795-0.1253-0.3795
						s-1.0638-0.6643-1.1563-1.0078c-0.0925-0.3435-0.0264-1.3477-0.0264-1.3477H17.3557z"></path><path fill="#3D3D3D" d="M21.6429,45.6357c-0.3036,0.0324-0.8414,0.0521-1.6247-0.0537c0,0-0.8694,0.1849-1.5711,0.0132
						c-0.1338-0.0327-0.2574-0.0957-0.3673-0.1788c-0.3281-0.2479-1.1775-0.843-1.6978-0.7846c0,0-0.5844,2.206-0.073,2.2498
						c0.5113,0.0438,2.022,0.1691,2.3959,0.1899c1.0972,0.0611,3.1914,0.4799,3.2515-1.1393
						C21.9627,45.7594,21.815,45.6174,21.6429,45.6357z"></path><path fill="#F8D5B4" d="M20.2228,43.2072c0,0-0.1772,0.5778-0.9738,1.4053l0.9078,0.9993c0,0,0.5285,0.3567,0.687,0.3964
						c0.1585,0.0396,0.8059,0.1453,1.1627,0.1057c0.3567-0.0396,0.9645-0.1718,1.0041-0.1718s-0.1253-0.3795-0.1253-0.3795
						s-1.0638-0.6643-1.1563-1.0078c-0.0925-0.3435-0.0264-1.3477-0.0264-1.3477H20.2228z"></path><path fill="#4F4D4D" d="M24.5099,45.6164c-0.3036,0.0324-0.8414,0.0521-1.6247-0.0537c0,0-0.8694,0.1849-1.5711,0.0132
						c-0.1338-0.0327-0.2574-0.0957-0.3673-0.1788c-0.3281-0.2479-1.1775-0.843-1.6978-0.7846c0,0-0.5844,2.206-0.073,2.2498
						c0.5113,0.0438,2.022,0.1691,2.3959,0.1899c1.0972,0.0611,3.1914,0.4799,3.2515-1.1393
						C24.8297,45.7401,24.682,45.598,24.5099,45.6164z"></path><path fill="#292346" d="M19.4948,30.4776l-3.6643-0.3217l-5.4658,3.1637c0,0,0.2434,0.5518,0.7542,1.2361l5.2962-3.1391
						c0.11-0.0628,0.2199-0.0707,0.2906-0.0315l6.13,3.5348c0.67-0.1723,0.6808-0.0057,0.5089,0.2934l2.4476,1.4114l-1.1701-0.6439
						c-0.0785-0.0393-0.1885-0.0314-0.2984,0.0314l-2.3855,1.4165c-0.4474,0.8213-0.8325,1.8473-0.8053,3.1463
						c0,0-0.0112,1.8971-1.2071,2.7169c0,0,1.0178,1.1117,2.7402,0.3132c0,0,2.446-5.0486,2.4825-5.1945
						c0.0364-0.1459,2.1739-3.3731,2.1337-4.9058C27.2592,32.6325,27.8109,31.4077,19.4948,30.4776z"></path><path fill="#292346" d="M18.7,36.5189c2.2643-0.9651,3.4975-1.4347,4.1357-1.5989l-6.13-3.5348
						c-0.0707-0.0393-0.1806-0.0314-0.2906,0.0315l-5.2962,3.1391C12.2479,36.0685,14.6852,38.2301,18.7,36.5189z"></path></g><g><path fill="#E6EFF9" d="M12.0954,30.1978l-2.5188,1.452c-0.422,0.2473-0.7931,0.7931-0.8731,1.3242L7.4084,43.5333
									l0.5798,0.3371l1.2951-10.5665c0.08-0.5239,0.4511-1.0696,0.8731-1.3169l1.939-1.1178V30.1978z"></path><path fill="#CAD9EF" d="M12.0954,30.8682l-1.94,1.1206c-0.4227,0.244-0.7888,0.7922-0.8757,1.3183l-1.292,10.5635
									l0.7897-0.4559l1.2554-10.3446c0.0137-0.0775,0.0647-0.155,0.1251-0.1899l1.9375-1.1191V30.8682z"></path></g><g><polygon fill="#CAD9EF" points="28.626 33.385 28.65 44.903 29.56 45.432 29.536 33.914"></polygon><polygon fill="#99B2DC" points="29.536 33.914 29.56 45.432 30.477 44.903 30.453 33.385"></polygon><polygon fill="#CAD9EF" points="41.212 26.93 41.236 37.637 42.145 38.166 42.122 27.459"></polygon><polygon fill="#99B2DC" points="42.122 27.459 42.145 38.166 43.063 37.636 43.039 26.93"></polygon><polygon fill="#284370" points="7.622 22.092 7.622 23.735 30.072 36.781 30.072 35.138"></polygon><polygon fill="#284370" points="30.072 35.138 30.072 36.781 44.069 28.699 44.069 27.056"></polygon><polygon fill="#5C74A1" points="7.622 22.092 30.072 35.138 44.069 27.056 21.62 14.011"></polygon><path fill="#F8D5B4" d="M17.0389,12.708c-0.0766-2.2478-1.8975-1.9974-1.8975-1.9974l-2.1226,0.4898
				c0,0-1.5226,2.2845-1.2023,3.5179c0.3203,1.2334,0.1506,2.7215,0.1506,2.7215l1.8999,0.2968
				c0.4601-0.8461,0.7569-1.2654,1.8829-1.106c0.9952,0.1409,0.7359-1.5637,0.852-1.8321c0.2452-0.5667,0.0527-0.9882,0.0832-1.3716
				C16.718,13.0124,17.0389,12.708,17.0389,12.708z"></path><path fill="#EEF3FA" d="M18.1873,19.8496c-0.7129-0.8377-1.3022-0.888-3.2081-2.5285c-0.461-0.3968-1.8592-0.1795-2.8643-0.786
				c-0.3937-0.2376-0.8895,0.2369-1.1394,0.6229c-1.5716,2.4271-1.5077,6.6569-0.0185,8.5085
				c2.356,2.9294-1.4009,5.6163-0.5922,7.6533c0.8322,2.0964,7.1054-1.158,8.7499-2.8754
				C15.5709,23.6382,19.6726,21.595,18.1873,19.8496z"></path><path fill="#D4E0F2" d="M14.2439,17.2841c-0.6524-0.1058-1.5179-0.138-2.2356-0.5717
						c-0.098-0.0591-0.1296-0.1862-0.0704-0.2842c0.0591-0.0988,0.1879-0.1279,0.2842-0.0704
						c0.629,0.3796,1.4339,0.4135,2.0866,0.5166c0.1134,0.0186,0.1903,0.1247,0.1725,0.2372
						C14.4632,17.2248,14.357,17.3015,14.2439,17.2841z"></path><path fill="#4F4D4D" d="M17.0429,12.7066c-0.0694-0.4166-0.4687-0.3646-0.5902-0.2604
					c-0.3819,0.3471-0.9113,1.1543-1.6924,1.6664c0.1128-0.5208-0.0261-0.9895-0.3385-1.0762
					c-0.5101-0.1379-1.0485,0.8078-0.894,1.5189c-0.2604,0.026-0.5381,0.0086-0.8419-0.0694
					c-0.5642-0.1475-0.6768,1.773-0.6768,1.773c-0.0173-0.5294-0.79-3.613-0.7814-4.4723c0.0173-0.8592,0.8332-3.0118,3.5585-2.4476
					C17.5029,9.8945,17.0429,12.7066,17.0429,12.7066z"></path><path fill="#4F4D4D" d="M11.4316,12.7526l-0.2021-1.1038c0,0-1.666,0.2406-1.1629,3.2004
					c0.5031,2.9598-0.6059,2.9412-0.7835,3.9798c-0.0287,0.1682-0.4867,1.2427,1.5788,3.6009c0,0-0.4248-2.0707,0.5045-3.3657
					C12.9086,16.9152,10.7016,13.9405,11.4316,12.7526z"></path><path fill="#EE4541" d="M11.394,13.009c-0.0084,0-0.0169-0.0016-0.0251-0.0051c-0.0326-0.0139-0.0378-0.049-0.034-0.0843
							c0.0737-0.6819-0.1172-1.2194-0.1363-1.2381c-0.0253-0.0248-0.0258-0.0655-0.0012-0.0908
							c0.0244-0.0254,0.0649-0.0264,0.0907-0.0015c0.5792,0.5521,0.2931,1.0787,0.1649,1.3806
							C11.4428,12.9944,11.419,13.009,11.394,13.009z"></path><g><path fill="#F8D5B4" d="M25.0998,22.3576c0,0,0.146-0.2844-0.1207-0.2376s-1.3817,0.4622-1.4461,0.8514l0.2286,0.6567
					c0.2192-0.0693,2.1628-0.1137,2.2974-0.9222c0.0344-0.2066,0.0998-0.5669-0.2462-0.3908
					c-0.3461,0.1761-1.0682,0.4295-1.1534,0.4037c0,0,0.1192-0.1913,0.2589-0.2544C25.058,22.4013,25.0998,22.3576,25.0998,22.3576z
					"></path><path fill="#D4E0F2" d="M23.543,22.5472l-3.9773,0.7532c-0.273,0.0878-0.5703-0.0261-0.7146-0.2739l-2.3506-4.0349
					c-0.3821-0.792-1.3835-1.0521-2.1027-0.5462c-0.6345,0.4463-0.7952,1.3182-0.3617,1.9614l3.5936,5.3315
					c0.1916,0.2994,0.5183,0.4677,0.8559,0.4677c0.134,0,0.2701-0.0263,0.3991-0.0814l5.0576-2.2775
					C24.1503,23.2719,23.958,22.7571,23.543,22.5472z"></path></g></g><g><path fill="#D1A62D" d="M12.6217,31.8819l2.6387,9.0845c0.0804,0.2588,0.2237,0.4451,0.4107,0.5537L7.761,36.9216
					c-0.1869-0.1087-0.3302-0.2949-0.4107-0.5537l-3.0308-9.3106L12.6217,31.8819z"></path><path fill="#EBC143" d="M11.3553,30.5223c-0.1324,0.0765-0.2637,0.2246-0.3435,0.402
						c-0.1297,0.2942-0.0838,0.5677,0.1022,0.6104l1.5076,0.3472l2.6387,9.0845c0.2129,0.685,0.8662,0.8618,1.6033,0.4363
						l7.2957-4.3278l1.1669,0.6362c0.0805,0.0459,0.1859,0.0254,0.2912-0.0354c0.1103-0.0637,0.2155-0.1706,0.3004-0.3177
						c0.1599-0.2828,0.1541-0.5795-0.0119-0.6683l-1.2876-0.705c-0.0755-0.043-0.1809-0.0341-0.2912,0.0296l-7.2606,4.3075
						c-0.4914,0.2837-0.9286,0.1668-1.0705-0.2879l-2.6185-9.0269c-0.0304-0.0863-0.0858-0.1409-0.1612-0.1609l-1.6232-0.3728
						C11.5216,30.4547,11.4382,30.4745,11.3553,30.5223z"></path></g><path fill="#FEE44B" d="M2.7097,26.0996c0.4207-0.9354,1.1301-0.1284,2.2044-0.0782l8.3022,4.8247l-1.6232-0.3728
			c-0.0716-0.0186-0.155,0.0012-0.2378,0.049c-0.1324,0.0765-0.2637,0.2246-0.3435,0.402
			c-0.1157,0.2624-0.0916,0.5083,0.0468,0.5887l-8.3022-4.8247C2.618,26.6079,2.594,26.362,2.7097,26.0996z"></path><g><path fill="#99B2DC" d="M21.6204,35.854c0.0146,0.0073,0.0291,0.0291,0.0291,0.0582l0.0049,0.0025l1.2951,8.864l0.5821,0.3347
							l-1.3024-8.864c0-0.0291-0.0146-0.0509-0.0291-0.0582L21.6204,35.854z"></path><path fill="#E6EFF9" d="M16.2253,48.6627l0.5798,0.3372l1.2951-10.5665c0.08-0.5239,0.4511-1.0696,0.8731-1.3169
							l3.1323-1.8056c0.2474-0.1455,0.4729-0.16,0.6403-0.0655l-0.5798-0.3372c-0.1673-0.0946-0.3929-0.08-0.6403,0.0655
							l-3.1323,1.8056c-0.422,0.2474-0.7931,0.7931-0.8731,1.3242L16.2253,48.6627z"></path><path fill="#CAD9EF" d="M22.1036,35.3094c0.4274-0.2467,0.7907-0.1197,0.8849,0.3071l1.3373,9.0402l-0.7944,0.4586
							l-1.2996-8.8695c-0.0095-0.064-0.0654-0.0799-0.1258-0.045l-3.1314,1.8088c-0.0604,0.0349-0.1114,0.1124-0.1251,0.1898
							l-1.2554,10.3446L16.8045,49l1.292-10.5635c0.0869-0.526,0.4529-1.0742,0.8757-1.3183L22.1036,35.3094z"></path></g><g><path fill="#D4E0F2" d="M32.9003,29.4932c0,0.2305,0.1511,0.461,0.4572,0.6386c0.6084,0.3552,1.6023,0.3552,2.2182,0
						c0.3061-0.1776,0.461-0.4119,0.461-0.6462l0.0038-3.5031c0-0.4988-0.7029-1.3415-1.5683-1.3415
						c-0.8692,0-1.5683,0.8427-1.5683,1.3415v0.0189L32.9003,29.4932z" opacity=".5"></path><path fill="#D4E0F2" d="M33.8503,25.0213v0.0722c0.085,0.1274,0.3159,0.2616,0.6316,0.2616
											c0.289,0,0.4974-0.1143,0.5865-0.2256c0-0.027,0.009-0.0632,0.009-0.0992l0.009-2.0391
											c0,0.0902-0.0541,0.1805-0.1714,0.2436c-0.2436,0.1443-0.6315,0.1443-0.8752,0
											c-0.1173-0.0722-0.1805-0.1624-0.1805-0.2527L33.8503,25.0213z" opacity=".5"></path><path fill="#FFF" d="M34.9055,22.7353c0.241,0.1391,0.2468,0.3623,0.0074,0.5014
												c-0.2396,0.1392-0.6293,0.1391-0.8703,0c-0.241-0.1391-0.2424-0.3649-0.0028-0.5041
												C34.2793,22.5935,34.6645,22.5962,34.9055,22.7353z M34.1239,23.1895c0.1956,0.1129,0.5084,0.1102,0.7026-0.0027
												c0.1897-0.1103,0.1933-0.2914-0.0023-0.4043c-0.1956-0.1129-0.5084-0.1102-0.6981,0
												C33.9319,22.8954,33.9284,23.0766,34.1239,23.1895"></path><path fill="#D4E0F2" d="M34.8243,22.7825c-0.1956-0.1129-0.5084-0.1103-0.6981,0
													c-0.1943,0.1129-0.1979,0.2941-0.0023,0.407c0.1956,0.1129,0.5084,0.1102,0.7027-0.0027
													C35.0163,23.0766,35.0199,22.8954,34.8243,22.7825z" opacity=".5"></path><path fill="#55B8E8" d="M32.9033,26.7016c0.0058,0.2266,0.1551,0.4519,0.4565,0.626c0.6194,0.3576,1.6101,0.3492,2.2255-0.0084
						c0.3068-0.1783,0.4577-0.4152,0.4516-0.652l0.003,0.4446l-0.003,2.3739c0,0.2343-0.1549,0.4686-0.461,0.6462
						c-0.616,0.3552-1.6098,0.3552-2.2182,0c-0.3061-0.1776-0.4572-0.4081-0.4572-0.6386L32.9033,26.7016z"></path><ellipse cx="34.47" cy="26.683" fill="#0092BF" rx="1.569" ry=".909"></ellipse><circle cx="33.578" cy="28.143" r=".226" fill="#0092BF"></circle><circle cx="34.242" cy="29.588" r=".226" fill="#0092BF"></circle><circle cx="34.945" cy="29.588" r=".325" fill="#0092BF"></circle><circle cx="35.406" cy="28.595" r=".226" fill="#0092BF"></circle><path fill="#D4E0F2" d="M28.8703,31.6638c0,0.2305,0.1511,0.461,0.4572,0.6386c0.6084,0.3552,1.6023,0.3552,2.2182,0
						c0.3061-0.1776,0.461-0.4119,0.461-0.6462l0.0038-3.5031c0-0.4988-0.7029-1.3415-1.5683-1.3415
						c-0.8692,0-1.5683,0.8427-1.5683,1.3415v0.0189L28.8703,31.6638z" opacity=".5"></path><path fill="#D4E0F2" d="M29.8203,27.1919v0.0722c0.085,0.1274,0.3159,0.2616,0.6316,0.2616
											c0.289,0,0.4974-0.1143,0.5865-0.2256c0-0.027,0.009-0.0632,0.009-0.0992l0.009-2.0391
											c0,0.0902-0.0541,0.1805-0.1714,0.2436c-0.2436,0.1443-0.6315,0.1443-0.8752,0
											c-0.1173-0.0722-0.1805-0.1624-0.1805-0.2527L29.8203,27.1919z" opacity=".5"></path><path fill="#FFF" d="M30.8755,24.9059c0.241,0.1391,0.2468,0.3623,0.0074,0.5014
												c-0.2396,0.1392-0.6293,0.1391-0.8703,0c-0.241-0.1391-0.2424-0.3649-0.0028-0.5041
												C30.2492,24.7641,30.6345,24.7667,30.8755,24.9059z M30.0939,25.3601c0.1956,0.1129,0.5084,0.1102,0.7026-0.0027
												c0.1897-0.1103,0.1933-0.2914-0.0023-0.4043s-0.5084-0.1102-0.6981,0C29.9019,25.066,29.8983,25.2472,30.0939,25.3601"></path><path fill="#D4E0F2" d="M30.7943,24.9531c-0.1956-0.1129-0.5084-0.1102-0.6981,0
													c-0.1943,0.1129-0.1979,0.2941-0.0023,0.407c0.1956,0.1129,0.5084,0.1102,0.7026-0.0027
													C30.9862,25.2472,30.9898,25.066,30.7943,24.9531z" opacity=".5"></path><path fill="#A9C838" d="M28.8732,28.8722c0.0058,0.2266,0.1551,0.4519,0.4565,0.626c0.6194,0.3576,1.6101,0.3492,2.2255-0.0084
						c0.3068-0.1783,0.4577-0.4152,0.4516-0.652l0.003,0.4446l-0.003,2.3739c0,0.2343-0.1549,0.4686-0.461,0.6462
						c-0.616,0.3552-1.6098,0.3552-2.2182,0c-0.3061-0.1776-0.4572-0.4081-0.4572-0.6386L28.8732,28.8722z"></path><ellipse cx="30.44" cy="28.853" fill="#589441" rx="1.569" ry=".909"></ellipse><circle cx="29.548" cy="30.313" r=".226" fill="#589441"></circle><circle cx="29.485" cy="31.039" r=".336" fill="#589441"></circle><circle cx="30.212" cy="31.759" r=".226" fill="#589441"></circle><circle cx="31.375" cy="30.766" r=".226" fill="#589441"></circle></g><g><path fill="#D4E0F2" d="M20.8167,20.2962l1.3895-2.5061l0.0166-1.8774h0.0083c0,0.091,0.0579,0.1737,0.1819,0.2481
			c0.2481,0.1406,0.6534,0.1406,0.9015,0c0.1158-0.0745,0.1737-0.1571,0.1737-0.2481h0.0083v1.8774l1.3895,2.5143
			c0.1075,0.2398,0.0579,0.5293-0.215,0.7692c-0.67,0.579-2.9692,0.579-3.6391,0C20.7505,20.8256,20.7009,20.5361,20.8167,20.2962z" opacity=".5"></path><path fill="#EF5A5A" d="M24.7759,20.3679l-0.7803-1.4095h-2.2887l-0.7741,1.3945c-0.0989,0.211-0.033,0.4317,0.1859,0.6217
								c0.2819,0.2471,0.9624,0.4067,1.7337,0.4067c0.7713,0,1.4518-0.1596,1.7331-0.406
								C24.7938,20.7899,24.8612,20.5647,24.7759,20.3679z"></path><path fill="#BC2B3B" d="M23.7191,19.6667c-0.4771,0.2767-1.251,0.2767-1.7281,0c-0.4771-0.2767-0.4811-0.7257-0.008-1.0024
								c0.4771-0.2767,1.2429-0.2686,1.7201,0.008C24.1802,18.945,24.1922,19.39,23.7191,19.6667z"></path><circle cx="21.67" cy="20.55" r=".283" fill="#BC2B3B"></circle><circle cx="23.933" cy="20.12" r=".283" fill="#BC2B3B"></circle><circle cx="22.336" cy="20.759" r=".175" fill="#BC2B3B"></circle><g><path fill="#EEF3FA" d="M23.3056,15.638c0.25,0.1443,0.256,0.3758,0.0077,0.5201
								c-0.2485,0.1444-0.6527,0.1443-0.9027,0c-0.25-0.1443-0.2514-0.3785-0.0029-0.5229
								C22.656,15.491,23.0557,15.4937,23.3056,15.638z M22.4949,16.1092c0.2028,0.1171,0.5273,0.1143,0.7288-0.0028
								c0.1968-0.1144,0.2005-0.3023-0.0024-0.4194c-0.2028-0.1171-0.5273-0.1143-0.724,0
								C22.2958,15.8041,22.2921,15.992,22.4949,16.1092" opacity=".5"></path><path fill="#FFF" d="M23.3056,15.638c0.25,0.1443,0.256,0.3758,0.0077,0.5201c-0.2485,0.1444-0.6527,0.1443-0.9027,0
								c-0.25-0.1443-0.2514-0.3785-0.0029-0.5229C22.656,15.491,23.0557,15.4937,23.3056,15.638z M22.4949,16.1092
								c0.2028,0.1171,0.5273,0.1143,0.7288-0.0028c0.1968-0.1144,0.2005-0.3023-0.0024-0.4194
								c-0.2028-0.1171-0.5273-0.1143-0.724,0C22.2958,15.8041,22.2921,15.992,22.4949,16.1092"></path><path fill="#D4E0F2" d="M23.2213,15.687c-0.2028-0.1171-0.5273-0.1144-0.724,0
									c-0.2015,0.1171-0.2052,0.305-0.0024,0.4221c0.2028,0.1171,0.5273,0.1144,0.7288-0.0028
									C23.4205,15.992,23.4242,15.8041,23.2213,15.687z" opacity=".5"></path></g></g></svg>