<svg xmlns="http://www.w3.org/2000/svg" xmlns:xlink="http://www.w3.org/1999/xlink" width="64" height="64" id="eye"><defs><path id="a" d="M.06 64V.04H64V64z"></path></defs><g fill="none" fill-rule="evenodd"><mask id="b" fill="#fff"><use xlink:href="#a"></use></mask><path fill="#76ABC4" d="M64 32c0 17.673-14.327 32-32 32C14.327 64 0 49.673 0 32 0 14.327 14.327 0 32 0c17.673 0 32 14.327 32 32" mask="url(#b)"></path><path fill="#638DA0" d="M32 54c-11.046 0-20-8.954-20-20s8.954-20 20-20 20 8.954 20 20-8.954 20-20 20"></path><path fill="#FFFFFE" d="M52 32c0 11.046-8.954 20-20 20s-20-8.954-20-20 8.954-20 20-20 20 8.954 20 20"></path><path fill="#73BBA3" d="M44 32c0 6.627-5.373 12-12 12s-12-5.373-12-12 5.373-12 12-12 12 5.373 12 12"></path><path fill="#4C5665" d="M36 32a4 4 0 1 1-8 0 4 4 0 0 1 8 0"></path><path fill="#FFFFFE" d="M36 30a2 2 0 1 1-3.999.001A2 2 0 0 1 36 30M44 24a4 4 0 1 1-8 0 4 4 0 0 1 8 0"></path></g></svg>